G04 #@! TF.FileFunction,Copper,L1,Top,Signal*
%FSLAX46Y46*%
G04 Gerber Fmt 4.6, Leading zero omitted, Abs format (unit mm)*
G04 Created by KiCad (PCBNEW 4.0.1-stable) date 10-Oct-16 12:47:22 PM*
%MOMM*%
G01*
G04 APERTURE LIST*
%ADD10C,0.100000*%
%ADD11C,0.150000*%
%ADD12C,3.000000*%
%ADD13O,1.727200X2.032000*%
%ADD14O,2.032000X1.727200*%
%ADD15R,1.727200X1.727200*%
%ADD16O,1.727200X1.727200*%
%ADD17R,0.400000X1.500000*%
%ADD18R,2.200000X2.500000*%
%ADD19R,0.797560X0.797560*%
%ADD20R,0.280000X1.500000*%
%ADD21R,1.500000X0.280000*%
%ADD22R,1.200000X1.100000*%
%ADD23R,1.000000X0.800000*%
%ADD24C,0.660000*%
%ADD25C,0.200000*%
%ADD26C,0.254000*%
%ADD27C,0.381000*%
G04 APERTURE END LIST*
D10*
D11*
X52800000Y-28900000D02*
X52800000Y-33400000D01*
X50300000Y-28900000D02*
X52800000Y-28900000D01*
X50200000Y-28800000D02*
X50300000Y-28900000D01*
X59800000Y-28900000D02*
X62400000Y-28900000D01*
X59800000Y-33400000D02*
X59800000Y-28900000D01*
X52800000Y-33400000D02*
X59800000Y-33400000D01*
X47800000Y-88700000D02*
X48800000Y-89700000D01*
X65100000Y-88700000D02*
X64100000Y-89700000D01*
X48800000Y-89700000D02*
X64100000Y-89700000D01*
X43600000Y-27600000D02*
X43600000Y-86700000D01*
X69100000Y-86700000D02*
X69100000Y-27600000D01*
X63700000Y-27600000D02*
X69100000Y-27600000D01*
X50200000Y-28800000D02*
X49000000Y-27600000D01*
X49000000Y-27600000D02*
X43600000Y-27600000D01*
X45800000Y-88700000D02*
X47800000Y-88700000D01*
X67100000Y-88700000D02*
X65100000Y-88700000D01*
X62400000Y-28900000D02*
X63700000Y-27600000D01*
X67100000Y-88700000D02*
G75*
G03X69100000Y-86700000I0J2000000D01*
G01*
X43600000Y-86700000D02*
G75*
G03X45800000Y-88700000I2100000J100000D01*
G01*
D12*
X67000000Y-86600000D03*
X67000000Y-29500000D03*
X45800000Y-29600000D03*
X45800000Y-86600000D03*
D13*
X65261328Y-84029329D03*
X62721328Y-84029329D03*
X60181328Y-84029329D03*
X57641328Y-84029329D03*
X55101328Y-84029329D03*
X52561328Y-84029329D03*
X50021328Y-84029329D03*
X47481328Y-84029329D03*
D14*
X67800000Y-32500000D03*
X67800000Y-35040000D03*
X67800000Y-37580000D03*
X67800000Y-40120000D03*
X67800000Y-42660000D03*
X67800000Y-45200000D03*
X67800000Y-47740000D03*
X67800000Y-50280000D03*
X67800000Y-52820000D03*
X67800000Y-55360000D03*
X67800000Y-57900000D03*
X67800000Y-60440000D03*
X67800000Y-62980000D03*
X67800000Y-65520000D03*
X67800000Y-68060000D03*
X67800000Y-70600000D03*
X67800000Y-73140000D03*
X67800000Y-75680000D03*
X67800000Y-78220000D03*
X67800000Y-80760000D03*
X44900000Y-32400000D03*
X44900000Y-34940000D03*
X44900000Y-37480000D03*
X44900000Y-40020000D03*
X44900000Y-42560000D03*
X44900000Y-45100000D03*
X44900000Y-47640000D03*
X44900000Y-50180000D03*
X44900000Y-52720000D03*
X44900000Y-55260000D03*
X44900000Y-57800000D03*
X44900000Y-60340000D03*
X44900000Y-62880000D03*
X44900000Y-65420000D03*
X44900000Y-67960000D03*
X44900000Y-70500000D03*
X44900000Y-73040000D03*
X44900000Y-75580000D03*
X44900000Y-78120000D03*
X44900000Y-80660000D03*
D15*
X51308000Y-79883000D03*
D16*
X51308000Y-77343000D03*
X53848000Y-79883000D03*
X53848000Y-77343000D03*
X56388000Y-79883000D03*
X56388000Y-77343000D03*
X58928000Y-79883000D03*
X58928000Y-77343000D03*
X61468000Y-79883000D03*
X61468000Y-77343000D03*
D17*
X57600000Y-34400000D03*
X56950000Y-34400000D03*
X56300000Y-34400000D03*
X55650000Y-34400000D03*
X55000000Y-34400000D03*
D18*
X61125000Y-33700000D03*
X61125000Y-30400000D03*
X51475000Y-33700000D03*
X51475000Y-30400000D03*
D19*
X61125100Y-40894000D03*
X62623700Y-40894000D03*
D20*
X62371328Y-55047328D03*
X61871328Y-55047328D03*
X61371328Y-55047328D03*
X60871328Y-55047328D03*
X60371328Y-55047328D03*
X59871328Y-55047328D03*
X59371328Y-55047328D03*
X58871328Y-55047328D03*
X58371328Y-55047328D03*
X57871328Y-55047328D03*
X57371328Y-55047328D03*
X56871328Y-55047328D03*
X56371328Y-55047328D03*
X55871328Y-55047328D03*
X55371328Y-55047328D03*
X54871328Y-55047328D03*
X54371328Y-55047328D03*
X53871328Y-55047328D03*
X53371328Y-55047328D03*
X52871328Y-55047328D03*
X52371328Y-55047328D03*
X51871328Y-55047328D03*
X51371328Y-55047328D03*
X50871328Y-55047328D03*
X50371328Y-55047328D03*
D21*
X48471328Y-56947328D03*
X48471328Y-57447328D03*
X48471328Y-57947328D03*
X48471328Y-58447328D03*
X48471328Y-58947328D03*
X48471328Y-59447328D03*
X48471328Y-59947328D03*
X48471328Y-60447328D03*
X48471328Y-60947328D03*
X48471328Y-61447328D03*
X48471328Y-61947328D03*
X48471328Y-62447328D03*
X48471328Y-62947328D03*
X48471328Y-63447328D03*
X48471328Y-63947328D03*
X48471328Y-64447328D03*
X48471328Y-64947328D03*
X48471328Y-65447328D03*
X48471328Y-65947328D03*
X48471328Y-66447328D03*
X48471328Y-66947328D03*
X48471328Y-67447328D03*
X48471328Y-67947328D03*
X48471328Y-68447328D03*
X48471328Y-68947328D03*
D20*
X50371328Y-70847328D03*
X50871328Y-70847328D03*
X51371328Y-70847328D03*
X51871328Y-70847328D03*
X52371328Y-70847328D03*
X52871328Y-70847328D03*
X53371328Y-70847328D03*
X53871328Y-70847328D03*
X54371328Y-70847328D03*
X54871328Y-70847328D03*
X55371328Y-70847328D03*
X55871328Y-70847328D03*
X56371328Y-70847328D03*
X56871328Y-70847328D03*
X57371328Y-70847328D03*
X57871328Y-70847328D03*
X58371328Y-70847328D03*
X58871328Y-70847328D03*
X59371328Y-70847328D03*
X59871328Y-70847328D03*
X60371328Y-70847328D03*
X60871328Y-70847328D03*
X61371328Y-70847328D03*
X61871328Y-70847328D03*
X62371328Y-70847328D03*
D21*
X64271328Y-68947328D03*
X64271328Y-68447328D03*
X64271328Y-67947328D03*
X64271328Y-67447328D03*
X64271328Y-66947328D03*
X64271328Y-66447328D03*
X64271328Y-65947328D03*
X64271328Y-65447328D03*
X64271328Y-64947328D03*
X64271328Y-64447328D03*
X64271328Y-63947328D03*
X64271328Y-63447328D03*
X64271328Y-62947328D03*
X64271328Y-62447328D03*
X64271328Y-61947328D03*
X64271328Y-61447328D03*
X64271328Y-60947328D03*
X64271328Y-60447328D03*
X64271328Y-59947328D03*
X64271328Y-59447328D03*
X64271328Y-58947328D03*
X64271328Y-58447328D03*
X64271328Y-57947328D03*
X64271328Y-57447328D03*
X64271328Y-56947328D03*
D19*
X63546828Y-33153128D03*
X63546828Y-31654528D03*
X48387000Y-76822300D03*
X48387000Y-75323700D03*
D22*
X58595260Y-43870880D03*
X64594740Y-47569120D03*
X58595260Y-47569120D03*
X64594740Y-43870880D03*
X47673260Y-43870880D03*
X53672740Y-47569120D03*
X47673260Y-47569120D03*
X53672740Y-43870880D03*
D23*
X54582400Y-51969700D03*
X57482400Y-51969700D03*
X54582400Y-50544700D03*
X57482400Y-50544700D03*
D24*
X57213500Y-74549000D03*
X54406800Y-56540400D03*
X49326800Y-47599600D03*
X58281408Y-64847248D03*
X59182000Y-45212000D03*
X59283600Y-41757600D03*
X66192400Y-39370000D03*
X64262000Y-40741600D03*
X48514000Y-40005000D03*
X54275828Y-68217828D03*
X50844288Y-61138848D03*
X50859528Y-65441608D03*
X61659608Y-58984928D03*
X56213848Y-58294048D03*
X53054088Y-67021488D03*
X55345168Y-56490648D03*
X57280648Y-56668448D03*
X61598648Y-65858168D03*
X61618968Y-69368449D03*
X54813200Y-43180000D03*
X56070500Y-72390000D03*
X55797289Y-74052208D03*
X51498500Y-74676000D03*
X54864000Y-45466000D03*
X54406800Y-46736000D03*
X64566800Y-48564800D03*
X48387000Y-45085000D03*
X50656328Y-52660329D03*
X49403000Y-50292000D03*
X63500000Y-48768000D03*
X50495200Y-46075600D03*
X60858400Y-41808400D03*
X50673000Y-39624000D03*
X48260000Y-41148000D03*
X60333728Y-69327809D03*
X60613128Y-65741328D03*
X61222728Y-72995569D03*
X49945128Y-65233329D03*
X59515848Y-61326808D03*
X62365729Y-59594528D03*
X60867128Y-59193208D03*
X51321808Y-62220888D03*
X52393688Y-67661568D03*
X50859528Y-58639488D03*
X58420000Y-48818800D03*
X50673000Y-74485500D03*
X51371500Y-82296000D03*
X62992000Y-50038000D03*
X59576808Y-81819528D03*
X58357608Y-82393568D03*
X49885600Y-75793600D03*
X57331448Y-58695368D03*
X56269728Y-52977828D03*
X54102000Y-53238400D03*
X62230000Y-41910000D03*
X59988288Y-64141128D03*
X54483000Y-74739500D03*
X59012928Y-64197009D03*
X62441928Y-63556928D03*
X66455128Y-66808128D03*
X62822928Y-64308768D03*
X64092928Y-75825128D03*
X64219928Y-79101728D03*
X64871600Y-36372800D03*
X62391128Y-57532048D03*
X61862808Y-58187368D03*
X50846828Y-57359328D03*
X49957828Y-57359328D03*
X47040800Y-57251600D03*
X55812528Y-64318929D03*
X55253729Y-64979328D03*
X54644128Y-65588928D03*
X54085328Y-66249329D03*
X57488928Y-65639728D03*
X57854688Y-66767488D03*
X58469368Y-67361849D03*
X59332968Y-67173888D03*
X47100328Y-74758328D03*
X58789408Y-66457608D03*
X59165328Y-65726089D03*
X49909568Y-66356008D03*
X48751328Y-69741829D03*
X64008000Y-51663600D03*
X53018529Y-62896528D03*
X65659000Y-48704500D03*
X65722500Y-45847000D03*
X64617600Y-42672000D03*
X58166000Y-42608500D03*
X66328128Y-51288728D03*
X52408929Y-63506128D03*
X64973200Y-53289200D03*
X62280800Y-61874400D03*
X60299600Y-60960000D03*
X56235600Y-60655200D03*
X50564888Y-68012088D03*
X50564888Y-68911248D03*
X65769328Y-57867328D03*
X65532000Y-49530000D03*
X62357000Y-52197000D03*
X62433200Y-51104800D03*
X64414400Y-49479200D03*
X65786000Y-59994800D03*
X65769328Y-60839128D03*
X59642848Y-57684448D03*
X59626500Y-51752500D03*
X60007500Y-50546000D03*
X59436000Y-49530000D03*
X64516000Y-31623000D03*
X47862328Y-72091328D03*
X59563000Y-38227000D03*
X56743600Y-45059600D03*
X65684400Y-62839600D03*
X57785000Y-38227000D03*
X52730400Y-53187600D03*
X55118000Y-47447200D03*
X56388000Y-38354000D03*
X52324000Y-47815500D03*
X53543200Y-56794400D03*
X48387000Y-54787800D03*
X52578000Y-40132000D03*
X53238400Y-45974000D03*
D25*
X58595260Y-44500800D02*
X58595260Y-43870880D01*
X58595260Y-44655740D02*
X58595260Y-44500800D01*
X57150000Y-46101000D02*
X58595260Y-44655740D01*
X54965600Y-46101000D02*
X57150000Y-46101000D01*
X49834800Y-43230800D02*
X48514000Y-41910000D01*
X48514000Y-41910000D02*
X47650400Y-41910000D01*
X49834800Y-43230800D02*
X49022000Y-42418000D01*
X57213500Y-74549000D02*
X58356500Y-75692000D01*
X57260328Y-62683169D02*
X57260328Y-63296800D01*
X57260328Y-59498008D02*
X57173968Y-59411648D01*
X54457600Y-57528400D02*
X55005000Y-58075800D01*
X55005000Y-58075800D02*
X55858248Y-58929048D01*
X55858248Y-58929048D02*
X56655808Y-58929048D01*
X56691369Y-58929048D02*
X57173968Y-59411648D01*
X56655808Y-58929048D02*
X56691369Y-58929048D01*
X57260328Y-63296800D02*
X57260328Y-59498008D01*
X54371328Y-56504928D02*
X54406800Y-56540400D01*
X54371328Y-55047328D02*
X54371328Y-56504928D01*
X54406800Y-57477600D02*
X54457600Y-57528400D01*
X54406800Y-56540400D02*
X54406800Y-57477600D01*
X47117000Y-41376600D02*
X47117000Y-39723000D01*
X47117000Y-39723000D02*
X44941328Y-37547328D01*
X47650400Y-41910000D02*
X47117000Y-41376600D01*
X49326800Y-47599600D02*
X49834800Y-47091600D01*
X49834800Y-47091600D02*
X49834800Y-46532800D01*
X51054000Y-46837600D02*
X52349400Y-46837600D01*
X52349400Y-46837600D02*
X52603400Y-46583600D01*
X49834800Y-43942000D02*
X49834800Y-43230800D01*
X49834800Y-44704000D02*
X49834800Y-43942000D01*
X49834800Y-45974000D02*
X49834800Y-44704000D01*
X49834800Y-45974000D02*
X49834800Y-46482000D01*
X50190400Y-46837600D02*
X49834800Y-46482000D01*
X51054000Y-46837600D02*
X50190400Y-46837600D01*
X57260328Y-63826168D02*
X58281408Y-64847248D01*
X57260328Y-63296800D02*
X57260328Y-63826168D01*
X61468000Y-76454000D02*
X61023500Y-76009500D01*
X61023500Y-76009500D02*
X58674000Y-76009500D01*
X58674000Y-76009500D02*
X58356500Y-75692000D01*
X61468000Y-77343000D02*
X61468000Y-76454000D01*
D26*
X58595260Y-44625260D02*
X59182000Y-45212000D01*
X58595260Y-44500800D02*
X58595260Y-44625260D01*
D25*
X54127400Y-46101000D02*
X53644800Y-46583600D01*
X53644800Y-46583600D02*
X52603400Y-46583600D01*
X54965600Y-46101000D02*
X54127400Y-46101000D01*
D27*
X55000000Y-34400000D02*
X55000000Y-40331500D01*
X55000000Y-40331500D02*
X55372000Y-40703500D01*
X55000000Y-34400000D02*
X55000000Y-37329000D01*
X55000000Y-37329000D02*
X54483000Y-37846000D01*
X59283600Y-41757600D02*
X59283600Y-41503600D01*
X59283600Y-41503600D02*
X58483500Y-40703500D01*
X58483500Y-40703500D02*
X55372000Y-40703500D01*
X55372000Y-40703500D02*
X55024500Y-40356000D01*
X65633600Y-39370000D02*
X66192400Y-39370000D01*
X64262000Y-40741600D02*
X65633600Y-39370000D01*
D26*
X49149000Y-37846000D02*
X48895000Y-38100000D01*
D27*
X51003200Y-37846000D02*
X49149000Y-37846000D01*
D26*
X55024500Y-36168000D02*
X55024500Y-37304500D01*
D27*
X54483000Y-37846000D02*
X51003200Y-37846000D01*
X55024500Y-37304500D02*
X54483000Y-37846000D01*
X46310328Y-32467328D02*
X44941328Y-32467328D01*
X48895000Y-35052000D02*
X46310328Y-32467328D01*
X48895000Y-39624000D02*
X48895000Y-38100000D01*
X48895000Y-38100000D02*
X48895000Y-35052000D01*
D26*
X48514000Y-40005000D02*
X48895000Y-39624000D01*
D27*
X54275828Y-68217828D02*
X53079488Y-67021488D01*
D25*
X53079488Y-67021488D02*
X53054088Y-67021488D01*
D26*
X50163568Y-61819568D02*
X50163568Y-62754288D01*
D27*
X50844288Y-61138848D02*
X50163568Y-61819568D01*
D25*
X48471328Y-59447328D02*
X49683950Y-59447328D01*
D26*
X49867528Y-64447328D02*
X48471328Y-64447329D01*
X50163568Y-64151288D02*
X49867528Y-64447328D01*
D25*
X50163568Y-59926946D02*
X50163568Y-62754288D01*
D26*
X50163568Y-62754288D02*
X50163568Y-64151288D01*
D25*
X49683950Y-59447328D02*
X50163568Y-59926946D01*
D26*
X51469128Y-61138848D02*
X50844288Y-61138848D01*
X51987289Y-61657008D02*
X51469128Y-61138848D01*
X51987289Y-62840648D02*
X51987289Y-61657008D01*
X51438649Y-63389288D02*
X51987289Y-62840648D01*
X51438648Y-64862488D02*
X51438649Y-63638208D01*
D27*
X50859528Y-65441608D02*
X51438648Y-64862488D01*
D26*
X51438649Y-63638208D02*
X51438649Y-63389288D01*
X63147168Y-58447328D02*
X62609568Y-58984928D01*
X62609568Y-58984928D02*
X61659608Y-58984928D01*
X64271328Y-58447328D02*
X63147168Y-58447328D01*
D27*
X55345168Y-57425368D02*
X56213848Y-58294048D01*
X55345168Y-56490648D02*
X55345168Y-57425368D01*
D26*
X55371328Y-55047328D02*
X55371328Y-56464488D01*
D25*
X55371328Y-56464488D02*
X55345168Y-56490648D01*
D26*
X60871328Y-70847328D02*
X60871328Y-69902728D01*
X60871328Y-69902728D02*
X61405608Y-69368448D01*
D25*
X60871328Y-70847328D02*
X60871329Y-70075448D01*
D26*
X52371328Y-70847329D02*
X52371328Y-69700689D01*
X52371328Y-69700689D02*
X53236968Y-68835048D01*
X55797288Y-73214009D02*
X55797289Y-74052208D01*
X57371328Y-55047328D02*
X57371328Y-56577768D01*
D25*
X57371328Y-56577768D02*
X57280648Y-56668448D01*
X61405608Y-69368448D02*
X61618968Y-69368449D01*
D27*
X62009488Y-65447328D02*
X61598648Y-65858168D01*
D26*
X64271329Y-65447328D02*
X62009488Y-65447328D01*
D27*
X53236968Y-68835048D02*
X53236968Y-67204368D01*
D25*
X53236968Y-67204368D02*
X53054088Y-67021488D01*
D26*
X54813200Y-43180000D02*
X54965600Y-43180000D01*
X55797289Y-72663211D02*
X55797289Y-74052208D01*
X56070500Y-72390000D02*
X55797289Y-72663211D01*
X51498500Y-74676000D02*
X52371328Y-73803172D01*
X52371328Y-73803172D02*
X52371328Y-70847328D01*
D27*
X55024500Y-42968700D02*
X54813200Y-43180000D01*
X55024500Y-40356000D02*
X55024500Y-42968700D01*
X55219600Y-43586400D02*
X54813200Y-43180000D01*
X55219600Y-45110400D02*
X55219600Y-43586400D01*
X54864000Y-45466000D02*
X55219600Y-45110400D01*
X53672740Y-47470060D02*
X54406800Y-46736000D01*
X53672740Y-47569120D02*
X53672740Y-47470060D01*
X64594740Y-48536860D02*
X64566800Y-48564800D01*
X64594740Y-47569120D02*
X64594740Y-48536860D01*
D26*
X48387000Y-45085000D02*
X47673260Y-44371260D01*
X47673260Y-44371260D02*
X47673260Y-43870880D01*
D25*
X46973329Y-49530000D02*
X46973329Y-49259329D01*
X47673260Y-45036740D02*
X47673260Y-43870880D01*
X46482000Y-46228000D02*
X47673260Y-45036740D01*
X46482000Y-48768000D02*
X46482000Y-46228000D01*
X46973329Y-49259329D02*
X46482000Y-48768000D01*
X46973329Y-50501328D02*
X46973329Y-49530000D01*
X50871328Y-69468408D02*
X51240529Y-69099208D01*
X51240529Y-69099208D02*
X51240529Y-67112928D01*
X50871328Y-70847329D02*
X50871328Y-69468408D01*
X51145278Y-56756078D02*
X54567928Y-60178728D01*
X52497828Y-65855629D02*
X54567928Y-63785528D01*
X49672078Y-56756078D02*
X51113528Y-56756078D01*
X51113528Y-56756078D02*
X51145278Y-56756078D01*
X54567928Y-60178728D02*
X54567928Y-63785528D01*
X51240529Y-67112928D02*
X52497828Y-65855629D01*
X49672078Y-56756078D02*
X49150300Y-56234299D01*
X46973328Y-54057328D02*
X46973329Y-50501328D01*
X46973329Y-50501328D02*
X46973329Y-50501328D01*
X47877699Y-56234299D02*
X46973328Y-55329928D01*
X46973328Y-55329928D02*
X46973328Y-54057328D01*
X49150300Y-56234299D02*
X47877699Y-56234299D01*
D26*
X51871328Y-55047328D02*
X51871328Y-53176829D01*
X51354828Y-52660329D02*
X50656328Y-52660329D01*
X51871328Y-53176829D02*
X51354828Y-52660329D01*
X49798000Y-53072000D02*
X49798000Y-52338000D01*
X49403000Y-51943000D02*
X49403000Y-50292000D01*
X49798000Y-52338000D02*
X49403000Y-51943000D01*
X51371329Y-55047328D02*
X51371329Y-53756328D01*
X51371329Y-53756328D02*
X51100828Y-53485828D01*
X50211828Y-53485828D02*
X49798000Y-53072000D01*
X49798000Y-53072000D02*
X49767328Y-53041328D01*
X51100828Y-53485828D02*
X50211828Y-53485828D01*
D27*
X56070500Y-48768000D02*
X55435500Y-48768000D01*
X53708300Y-49466500D02*
X53492400Y-49682400D01*
X54737000Y-49466500D02*
X53708300Y-49466500D01*
X55435500Y-48768000D02*
X54737000Y-49466500D01*
X62992000Y-50038000D02*
X62992000Y-49276000D01*
X62992000Y-49276000D02*
X63500000Y-48768000D01*
D26*
X50495200Y-46075600D02*
X50749200Y-45821600D01*
X50749200Y-45821600D02*
X50749200Y-42316400D01*
X50749200Y-42316400D02*
X49580800Y-41148000D01*
X49580800Y-41148000D02*
X48260000Y-41148000D01*
X60845700Y-41795700D02*
X60858400Y-41808400D01*
X67801328Y-37547328D02*
X67392328Y-37547328D01*
X63246000Y-33453956D02*
X63546828Y-33153128D01*
D27*
X49276000Y-41021000D02*
X50673000Y-39624000D01*
D26*
X48387000Y-41021000D02*
X49276000Y-41021000D01*
X48260000Y-41148000D02*
X48387000Y-41021000D01*
X60371328Y-69365408D02*
X60371328Y-70847328D01*
D25*
X60333728Y-69327809D02*
X60371328Y-69365408D01*
D26*
X64271328Y-64947328D02*
X61158208Y-64947328D01*
X61158208Y-64947328D02*
X60613128Y-65492408D01*
D25*
X60613128Y-65492408D02*
X60613128Y-65741328D01*
D26*
X60689329Y-72993028D02*
X61220188Y-72993029D01*
D25*
X61220188Y-72993029D02*
X61222728Y-72995569D01*
D26*
X60371328Y-72675028D02*
X60689329Y-72993028D01*
X60371328Y-70847328D02*
X60371328Y-72675028D01*
D27*
X50696969Y-62845728D02*
X51321808Y-62220888D01*
X50696969Y-64324008D02*
X50696969Y-62845728D01*
X50073648Y-64947329D02*
X50696969Y-64324008D01*
D26*
X48471328Y-64947328D02*
X50073648Y-64947329D01*
D25*
X49945128Y-65233329D02*
X49659128Y-64947329D01*
X49659128Y-64947329D02*
X48471328Y-64947328D01*
D27*
X62998188Y-60740068D02*
X62998188Y-62538388D01*
X62998188Y-62538388D02*
X62736568Y-62800009D01*
D26*
X59515848Y-61326808D02*
X59642849Y-61326808D01*
D27*
X59642849Y-61326808D02*
X61116048Y-62800008D01*
X62365728Y-60107608D02*
X62998188Y-60740068D01*
D25*
X60501368Y-62185328D02*
X60491209Y-62175168D01*
D27*
X61116048Y-62800008D02*
X60501368Y-62185328D01*
X62736568Y-62800009D02*
X61116048Y-62800008D01*
D25*
X62571468Y-59581828D02*
X62378428Y-59581829D01*
X62378428Y-59581829D02*
X62365729Y-59594528D01*
D27*
X60877288Y-59635168D02*
X60877288Y-59203369D01*
D26*
X62571468Y-59581828D02*
X62132048Y-60021248D01*
D27*
X62132048Y-60021248D02*
X61263368Y-60021248D01*
X61263368Y-60021248D02*
X60877288Y-59635168D01*
D25*
X62571468Y-59576748D02*
X62571468Y-59581828D01*
X60877288Y-59203369D02*
X60867128Y-59193208D01*
X64271329Y-58947328D02*
X63200888Y-58947328D01*
X63200888Y-58947328D02*
X62571468Y-59576748D01*
X62571468Y-59576748D02*
X62538448Y-59609768D01*
D27*
X62365729Y-59594528D02*
X62365728Y-60107608D01*
D26*
X51871329Y-69567990D02*
X51871328Y-70847328D01*
X52393688Y-67661568D02*
X52393688Y-69045631D01*
X52393688Y-69045631D02*
X51871329Y-69567990D01*
D25*
X48471328Y-57947329D02*
X49923528Y-57947328D01*
X50615688Y-58639488D02*
X50859528Y-58639488D01*
X49923528Y-57947328D02*
X50615688Y-58639488D01*
D26*
X67801328Y-37547328D02*
X67062128Y-37547328D01*
D27*
X63546828Y-36474400D02*
X63546828Y-33153128D01*
D26*
X63546828Y-36521228D02*
X63546828Y-36474400D01*
D27*
X64572928Y-37547328D02*
X63546828Y-36521228D01*
X65125600Y-37547328D02*
X64572928Y-37547328D01*
X67801328Y-37547328D02*
X65125600Y-37547328D01*
D26*
X58369200Y-48768000D02*
X58420000Y-48818800D01*
D27*
X56070500Y-48768000D02*
X58369200Y-48768000D01*
X53492400Y-51155600D02*
X53492400Y-49682400D01*
X54306500Y-51969700D02*
X53492400Y-51155600D01*
D26*
X50673000Y-74485500D02*
X50300728Y-74113228D01*
X50300728Y-74113228D02*
X50300728Y-73635648D01*
X51871328Y-72065048D02*
X51871328Y-70847328D01*
X50300728Y-73635648D02*
X51871328Y-72065048D01*
X51308000Y-82232500D02*
X51371500Y-82296000D01*
D27*
X51308000Y-79883000D02*
X51308000Y-82232500D01*
X62992000Y-49403000D02*
X62992000Y-50038000D01*
X58931648Y-81819528D02*
X58357608Y-82393568D01*
X59576808Y-81819528D02*
X58931648Y-81819528D01*
X54306500Y-51969700D02*
X53492400Y-51155600D01*
X54682400Y-51969700D02*
X54306500Y-51969700D01*
X60858400Y-41656000D02*
X61125100Y-41389300D01*
X61125100Y-41389300D02*
X61125100Y-40894000D01*
X60858400Y-41808400D02*
X60858400Y-41656000D01*
X63546828Y-36876828D02*
X63546828Y-36474400D01*
X63296800Y-38100000D02*
X63546828Y-37849972D01*
X63546828Y-37849972D02*
X63546828Y-37748372D01*
X63546828Y-37748372D02*
X63546828Y-36876828D01*
X61125100Y-40271700D02*
X63296800Y-38100000D01*
X61125100Y-40894000D02*
X61125100Y-40271700D01*
X63849472Y-37547328D02*
X63296800Y-38100000D01*
X64566800Y-37547328D02*
X63849472Y-37547328D01*
X65125600Y-37547328D02*
X64566800Y-37547328D01*
X64217328Y-37547328D02*
X63546828Y-36876828D01*
X64566800Y-37547328D02*
X64217328Y-37547328D01*
X50292000Y-79883000D02*
X51308000Y-79883000D01*
D26*
X49466500Y-79184500D02*
X50165000Y-79883000D01*
X50165000Y-79883000D02*
X51308000Y-79883000D01*
X49657000Y-76771500D02*
X49657000Y-77851000D01*
X49885600Y-76161900D02*
X49657000Y-76390500D01*
X49657000Y-76390500D02*
X49657000Y-76771500D01*
X49885600Y-75793600D02*
X49885600Y-76161900D01*
X49657000Y-77851000D02*
X49466500Y-78041500D01*
X49466500Y-78041500D02*
X49466500Y-79184500D01*
D25*
X57871328Y-56775128D02*
X57871328Y-57576368D01*
X57871328Y-57576368D02*
X57331448Y-58116248D01*
X57331448Y-58695368D02*
X57331448Y-58116248D01*
X57331448Y-58695368D02*
X57331448Y-58151808D01*
X56549128Y-57369488D02*
X56549128Y-56561768D01*
X57331448Y-58151808D02*
X56549128Y-57369488D01*
X57871328Y-55047328D02*
X57871328Y-56775128D01*
X56871328Y-55047328D02*
X56871328Y-56239568D01*
X56871328Y-56239568D02*
X56549128Y-56561768D01*
X57871328Y-57266488D02*
X57871328Y-55047328D01*
D26*
X54871327Y-55047328D02*
X54871328Y-53982528D01*
X54871328Y-53982528D02*
X55304528Y-53549328D01*
X55698228Y-53549328D02*
X56269728Y-52977828D01*
X55304528Y-53549328D02*
X55698228Y-53549328D01*
D25*
X53871328Y-53469072D02*
X54102000Y-53238400D01*
X53871328Y-55047328D02*
X53871328Y-53469072D01*
X62230000Y-41910000D02*
X62344300Y-41795700D01*
D26*
X62230000Y-41859200D02*
X62623700Y-41465500D01*
X62623700Y-41465500D02*
X62623700Y-40894000D01*
X62230000Y-41910000D02*
X62230000Y-41859200D01*
D25*
X61371329Y-55047328D02*
X61371328Y-56702728D01*
X60277848Y-57796208D02*
X60277848Y-57902888D01*
X61371328Y-56702728D02*
X60277848Y-57796208D01*
X58972288Y-58502328D02*
X59678408Y-58502328D01*
X60277848Y-57902888D02*
X59678408Y-58502328D01*
X58062968Y-60209208D02*
X58062968Y-59411648D01*
X58062968Y-59411648D02*
X58972288Y-58502328D01*
X59988288Y-64141128D02*
X59439648Y-63592488D01*
X58489688Y-63592488D02*
X58098528Y-63201328D01*
X58098528Y-63201328D02*
X58098528Y-61230288D01*
X59439648Y-63592488D02*
X58489688Y-63592488D01*
X58062968Y-61194728D02*
X58098528Y-61230288D01*
X58062968Y-60209208D02*
X58062968Y-61194728D01*
X58454128Y-58421048D02*
X58454129Y-57557966D01*
X58454129Y-57557966D02*
X58448530Y-57552368D01*
X58448530Y-57552368D02*
X58448530Y-57557966D01*
X58454128Y-57552368D02*
X58448530Y-57557966D01*
X58448530Y-57557966D02*
X58570968Y-57435528D01*
X59721588Y-57006269D02*
X59000228Y-57006268D01*
X59000228Y-57006268D02*
X58570968Y-57435528D01*
X60371328Y-56356528D02*
X59721588Y-57006269D01*
X60371328Y-55047328D02*
X60371328Y-56356528D01*
X58570968Y-57435528D02*
X58448530Y-57557966D01*
X58454128Y-58273728D02*
X58454128Y-58421048D01*
X57687049Y-62738000D02*
X57687049Y-59188127D01*
X57708800Y-59182000D02*
X57708800Y-59166376D01*
X57693176Y-59182000D02*
X57708800Y-59182000D01*
X57687049Y-59188127D02*
X57693176Y-59182000D01*
X59012928Y-64197009D02*
X58352528Y-64197008D01*
X58352528Y-64197008D02*
X57687049Y-63531528D01*
X57687049Y-63531528D02*
X57687049Y-62738000D01*
X58454128Y-58421048D02*
X57708800Y-59166376D01*
X53848000Y-76263500D02*
X53848000Y-77343000D01*
X54483000Y-75628500D02*
X53848000Y-76263500D01*
X54483000Y-74739500D02*
X54483000Y-75628500D01*
X62371328Y-55047328D02*
X62371328Y-56710786D01*
X61390368Y-57691746D02*
X61390368Y-57826688D01*
X62371328Y-56710786D02*
X61390368Y-57691746D01*
X62441928Y-63556928D02*
X62320008Y-63556928D01*
X61298928Y-63927768D02*
X60188949Y-62817788D01*
X61949168Y-63927768D02*
X61298928Y-63927768D01*
X62320008Y-63556928D02*
X61949168Y-63927768D01*
X58972288Y-59833289D02*
X58972288Y-59589448D01*
X58972288Y-59589448D02*
X59277089Y-59284648D01*
X59277089Y-59284648D02*
X59719048Y-59284649D01*
X61390368Y-57826688D02*
X59932408Y-59284648D01*
X59932408Y-59284648D02*
X59719048Y-59284649D01*
X59244069Y-62817788D02*
X58850369Y-62424088D01*
X58850369Y-62424088D02*
X58850368Y-59955209D01*
X58850368Y-59955209D02*
X58972288Y-59833289D01*
X60188949Y-62817788D02*
X59244069Y-62817788D01*
X65738328Y-56947328D02*
X66378928Y-57587928D01*
X66378928Y-57587928D02*
X66378928Y-66731928D01*
X66378928Y-66731928D02*
X66455128Y-66808128D01*
X64271328Y-56947328D02*
X65738328Y-56947328D01*
X62822928Y-64308768D02*
X61131289Y-64308768D01*
X61131289Y-64308768D02*
X60003528Y-63181008D01*
X61871328Y-55047328D02*
X61871328Y-56715808D01*
X60927623Y-57659513D02*
X60927623Y-57753815D01*
X61871328Y-56715808D02*
X60927623Y-57659513D01*
X59145008Y-58918888D02*
X59762550Y-58918888D01*
X58484608Y-59579288D02*
X59145008Y-58918888D01*
X58484608Y-60488608D02*
X58484608Y-59579288D01*
X60927623Y-57753815D02*
X59762550Y-58918888D01*
X64092928Y-75825128D02*
X64626328Y-76358528D01*
X64626328Y-76358528D02*
X64626328Y-78695328D01*
X64626328Y-78695328D02*
X64219928Y-79101728D01*
X58957048Y-63181008D02*
X58469368Y-62693328D01*
X58469368Y-62693328D02*
X58469368Y-60503848D01*
X58469368Y-60503848D02*
X58484608Y-60488608D01*
X60003528Y-63181008D02*
X58957048Y-63181008D01*
D27*
X65633600Y-36372800D02*
X64871600Y-36372800D01*
X66999072Y-35007328D02*
X65633600Y-36372800D01*
X67801328Y-35007328D02*
X66999072Y-35007328D01*
D26*
X65786000Y-44259500D02*
X65786000Y-44704000D01*
X65786000Y-44704000D02*
X64833500Y-45656500D01*
X64833500Y-45656500D02*
X63309500Y-45656500D01*
X58928000Y-46101000D02*
X58166000Y-46101000D01*
X58166000Y-46101000D02*
X56134000Y-48133000D01*
X56134000Y-48133000D02*
X55880000Y-48133000D01*
X58928000Y-46101000D02*
X62865000Y-46101000D01*
X62865000Y-46101000D02*
X63309500Y-45656500D01*
X65786000Y-42102656D02*
X67801328Y-40087328D01*
X65786000Y-44259500D02*
X65786000Y-42102656D01*
X53371328Y-52832000D02*
X53371328Y-52164828D01*
X56134000Y-48133000D02*
X56927750Y-47339250D01*
X56927750Y-47339250D02*
X56959500Y-47307500D01*
X55118000Y-48133000D02*
X55880000Y-48133000D01*
X55880000Y-48133000D02*
X56134000Y-48133000D01*
X54419500Y-48831500D02*
X55118000Y-48133000D01*
X53530500Y-48831500D02*
X54419500Y-48831500D01*
X52832000Y-49530000D02*
X53530500Y-48831500D01*
X52832000Y-51625500D02*
X52832000Y-49530000D01*
X53371328Y-52164828D02*
X52832000Y-51625500D01*
X53371328Y-55047328D02*
X53371328Y-52832000D01*
X53371328Y-52832000D02*
X53371328Y-52578000D01*
D25*
X64271329Y-57447328D02*
X62475848Y-57447328D01*
X62475848Y-57447328D02*
X62391128Y-57532048D01*
X64271329Y-57447328D02*
X62597768Y-57447328D01*
X64271329Y-57447328D02*
X62734928Y-57447328D01*
D26*
X63076928Y-57947329D02*
X63075822Y-57947328D01*
X62786174Y-58236975D02*
X62786175Y-58233088D01*
X63075822Y-57947328D02*
X62786174Y-58236975D01*
D25*
X62015208Y-58233088D02*
X61908528Y-58233088D01*
X61908528Y-58233088D02*
X61862808Y-58187368D01*
D26*
X62786175Y-58233088D02*
X62015208Y-58233088D01*
X64271329Y-57947328D02*
X63076928Y-57947329D01*
D25*
X63076928Y-57947329D02*
X63068048Y-57947328D01*
X62782288Y-58233088D02*
X62786175Y-58233088D01*
X64271329Y-57947328D02*
X63073128Y-57947329D01*
X50846828Y-57359328D02*
X51253550Y-57359328D01*
X51253550Y-57359328D02*
X52039519Y-58145297D01*
X51253550Y-57359328D02*
X54033419Y-60139197D01*
X54161528Y-60569889D02*
X54161528Y-60267306D01*
X54161528Y-60267306D02*
X54033419Y-60139197D01*
X54033419Y-60139197D02*
X54152799Y-60258577D01*
X54152799Y-60258577D02*
X54152799Y-60312240D01*
X54152799Y-60312240D02*
X54161528Y-60320969D01*
X54161528Y-60986448D02*
X54161528Y-60569889D01*
X54161528Y-60569889D02*
X54161528Y-60320969D01*
X54161528Y-60320969D02*
X54152799Y-60312240D01*
X54161528Y-60986448D02*
X54161528Y-61149008D01*
X54161528Y-61149008D02*
X54161528Y-63506128D01*
X48471328Y-67447328D02*
X50220328Y-67447328D01*
X50220328Y-67447328D02*
X51037328Y-66630328D01*
X54161528Y-63506128D02*
X51862829Y-65804828D01*
X51037328Y-66630328D02*
X51862829Y-65804828D01*
X49957828Y-57359328D02*
X49970528Y-57359328D01*
X49970528Y-57359328D02*
X50620769Y-58009568D01*
X51347208Y-58009568D02*
X50620769Y-58009568D01*
X53729728Y-61682408D02*
X53729728Y-60392088D01*
X53729728Y-60392088D02*
X51347208Y-58009568D01*
X53729728Y-61682408D02*
X53729728Y-63404528D01*
X50186928Y-66947328D02*
X48471328Y-66947329D01*
X53729728Y-63404528D02*
X50186928Y-66947328D01*
X45639829Y-52787328D02*
X44941328Y-52787329D01*
D26*
X46431201Y-53578700D02*
X45639829Y-52787328D01*
D25*
X46431200Y-67929700D02*
X46431201Y-53578700D01*
X46948828Y-68447328D02*
X46431200Y-67929700D01*
X48471328Y-68447328D02*
X46948828Y-68447328D01*
X46991300Y-67664300D02*
X46973328Y-67646328D01*
X47274328Y-67947328D02*
X46991300Y-67664300D01*
X48471329Y-67947328D02*
X47274328Y-67947328D01*
X46991300Y-57301100D02*
X47040800Y-57251600D01*
X46991300Y-67664300D02*
X46991300Y-57301100D01*
X56371329Y-65792128D02*
X56371328Y-65436528D01*
X56371329Y-70847328D02*
X56371329Y-65792128D01*
X56371328Y-64877728D02*
X55812528Y-64318929D01*
X56371328Y-65436528D02*
X56371328Y-64877728D01*
X55871328Y-70847328D02*
X55871328Y-66300128D01*
X55871328Y-65596928D02*
X55253729Y-64979328D01*
X55871328Y-66300128D02*
X55871328Y-65596928D01*
X55371328Y-70847328D02*
X55371328Y-67265329D01*
X55371328Y-66316128D02*
X54644128Y-65588928D01*
X55371328Y-67265329D02*
X55371328Y-66316128D01*
X54871328Y-70847329D02*
X54871328Y-67062128D01*
X54871328Y-67035329D02*
X54085328Y-66249329D01*
X54871328Y-67062128D02*
X54871328Y-67035329D01*
X62005048Y-68738528D02*
X58977369Y-68738528D01*
X62005048Y-68738528D02*
X57956288Y-68738528D01*
X57956288Y-68738528D02*
X57773408Y-68555649D01*
X57773408Y-68555649D02*
X57875008Y-68657249D01*
X62162528Y-68738528D02*
X62005048Y-68738528D01*
X62371328Y-68947329D02*
X62162528Y-68738528D01*
X64271328Y-68947328D02*
X62371328Y-68947329D01*
X57234928Y-65893728D02*
X57488928Y-65639728D01*
X57234929Y-66909728D02*
X57234928Y-65893728D01*
X57234929Y-66909728D02*
X57234928Y-68017168D01*
X57234928Y-68017168D02*
X57773408Y-68555649D01*
X64271328Y-68447328D02*
X62445368Y-68447328D01*
X57854688Y-68017168D02*
X57854688Y-66767488D01*
X58200128Y-68362608D02*
X57854688Y-68017168D01*
X62360648Y-68362608D02*
X58200128Y-68362608D01*
X62445368Y-68447328D02*
X62360648Y-68362608D01*
X64271328Y-68447328D02*
X62526648Y-68447328D01*
X64271329Y-67947328D02*
X62605768Y-67947328D01*
X64271329Y-67947328D02*
X59054848Y-67947328D01*
X59054848Y-67947328D02*
X58469368Y-67361849D01*
X64271328Y-67447328D02*
X59606409Y-67447328D01*
X59606409Y-67447328D02*
X59332968Y-67173888D01*
X64271328Y-67447328D02*
X62959208Y-67447328D01*
D26*
X47100328Y-74758328D02*
X47100328Y-75802328D01*
X47100328Y-75929328D02*
X47100328Y-74758328D01*
X47993300Y-76822300D02*
X47100328Y-75929328D01*
X48387000Y-76822300D02*
X47993300Y-76822300D01*
D25*
X64271329Y-66947328D02*
X60112248Y-66947328D01*
X59622529Y-66457608D02*
X58789408Y-66457608D01*
X60112248Y-66947328D02*
X59622529Y-66457608D01*
X64271329Y-66947328D02*
X61082528Y-66947329D01*
X64271329Y-66447328D02*
X60232008Y-66447328D01*
X59510768Y-65726089D02*
X59165328Y-65726089D01*
X60232008Y-66447328D02*
X59510768Y-65726089D01*
D26*
X47481328Y-84029328D02*
X47481328Y-81933828D01*
X46973328Y-77044328D02*
X46465328Y-76536329D01*
X46973328Y-81425828D02*
X46973328Y-77044328D01*
X47481328Y-81933828D02*
X46973328Y-81425828D01*
D25*
X48471328Y-66447328D02*
X49670928Y-66447328D01*
X49818248Y-66447328D02*
X49909568Y-66356008D01*
X48471328Y-66447328D02*
X49818248Y-66447328D01*
X48751328Y-69741829D02*
X48624328Y-69868829D01*
X48624328Y-69868829D02*
X47036828Y-69868829D01*
X46465328Y-70440329D02*
X47036828Y-69868829D01*
X46465328Y-70440329D02*
X46465328Y-72218328D01*
X46465328Y-76536329D02*
X46465328Y-72218328D01*
D26*
X66294000Y-44704000D02*
X66294000Y-44958000D01*
X64008000Y-51663600D02*
X65227200Y-50444400D01*
X65227200Y-50444400D02*
X65582800Y-50444400D01*
X65582800Y-50444400D02*
X66294000Y-49733200D01*
X66294000Y-49733200D02*
X66294000Y-49276000D01*
X49788528Y-58447328D02*
X51006848Y-59665648D01*
X49788528Y-58447328D02*
X48471328Y-58447328D01*
X53018528Y-60707048D02*
X51977128Y-59665648D01*
X51977128Y-59665648D02*
X51006848Y-59665648D01*
X53018529Y-62896528D02*
X53018528Y-60707048D01*
X66294000Y-49149000D02*
X65849500Y-48704500D01*
X65849500Y-48704500D02*
X65659000Y-48704500D01*
X66294000Y-49276000D02*
X66294000Y-49149000D01*
X65722500Y-45529500D02*
X65722500Y-45847000D01*
X66294000Y-44958000D02*
X65722500Y-45529500D01*
X66294000Y-44754800D02*
X66294000Y-44704000D01*
X66294000Y-44704000D02*
X66294000Y-44134656D01*
X66294000Y-44134656D02*
X67801328Y-42627328D01*
D25*
X64617600Y-42672000D02*
X60706000Y-42672000D01*
X58356500Y-42799000D02*
X58166000Y-42608500D01*
X60579000Y-42799000D02*
X58356500Y-42799000D01*
X60706000Y-42672000D02*
X60579000Y-42799000D01*
D26*
X52408929Y-63506128D02*
X52408929Y-60788328D01*
X51723128Y-60102528D02*
X50834128Y-60102528D01*
X52408929Y-60788328D02*
X51723128Y-60102528D01*
X48471329Y-58947328D02*
X49678929Y-58947328D01*
D25*
X49678929Y-58947328D02*
X50834128Y-60102528D01*
D26*
X66277329Y-51288728D02*
X64973200Y-52592857D01*
X64973200Y-52592857D02*
X64973200Y-53289200D01*
D25*
X66328128Y-51288728D02*
X66277329Y-51288728D01*
X67801328Y-47707328D02*
X67138328Y-47707328D01*
X67138328Y-47707328D02*
X65913000Y-46482000D01*
X65913000Y-46482000D02*
X63627000Y-46482000D01*
X63627000Y-46482000D02*
X61087000Y-49022000D01*
X61087000Y-49022000D02*
X61087000Y-51117500D01*
X61087000Y-51117500D02*
X60960000Y-51244500D01*
X58371328Y-53642672D02*
X59626500Y-52387500D01*
X59626500Y-52387500D02*
X59817000Y-52387500D01*
X59817000Y-52387500D02*
X60960000Y-51244500D01*
X60960000Y-51244500D02*
X61087000Y-51117500D01*
X58371328Y-55047328D02*
X58371328Y-53642672D01*
X59673328Y-53041328D02*
X59901928Y-52812728D01*
X59901928Y-52812728D02*
X63026128Y-52812728D01*
X63026128Y-52812728D02*
X63153128Y-52939728D01*
X58871329Y-55047328D02*
X58871328Y-53843328D01*
X58871328Y-53843328D02*
X59343128Y-53371528D01*
X59343128Y-53371528D02*
X59673328Y-53041328D01*
X63153128Y-52939728D02*
X63381728Y-52939729D01*
X63646271Y-52939729D02*
X66338672Y-50247328D01*
X66338672Y-50247328D02*
X67801328Y-50247328D01*
X63381728Y-52939729D02*
X63646271Y-52939729D01*
D26*
X65947128Y-54641528D02*
X67801329Y-52787328D01*
D25*
X59371328Y-55047328D02*
X59371328Y-53902128D01*
X59371328Y-53902128D02*
X60016228Y-53257228D01*
X60016228Y-53257228D02*
X62988028Y-53257228D01*
X62988028Y-53257228D02*
X63356328Y-53625528D01*
X64372328Y-54641528D02*
X65947128Y-54641528D01*
X63356328Y-53625528D02*
X64372328Y-54641528D01*
X59871328Y-53960929D02*
X60206728Y-53625529D01*
X60206728Y-53625529D02*
X62797529Y-53625528D01*
X62797529Y-53625528D02*
X64499328Y-55327328D01*
D26*
X64499328Y-55327328D02*
X67801328Y-55327328D01*
D25*
X59871328Y-55047328D02*
X59871328Y-53960929D01*
X62230000Y-61925200D02*
X62280800Y-61874400D01*
X62026800Y-61925200D02*
X62230000Y-61925200D01*
X52871328Y-56997600D02*
X52871328Y-57189328D01*
X52871328Y-55047328D02*
X52871328Y-56997600D01*
X61264800Y-61925200D02*
X62026800Y-61925200D01*
X62026800Y-61925200D02*
X62077600Y-61925200D01*
X60299600Y-60960000D02*
X61264800Y-61925200D01*
X56235600Y-60655200D02*
X52871328Y-57290928D01*
X52871328Y-57290928D02*
X52871328Y-57087728D01*
X48471328Y-68947328D02*
X49609328Y-68947329D01*
X50199129Y-68357528D02*
X50323589Y-68233068D01*
X49609328Y-68947329D02*
X50199129Y-68357528D01*
X50371328Y-70847328D02*
X50371328Y-69104808D01*
X50371328Y-69104808D02*
X50564888Y-68911248D01*
X66912328Y-68027328D02*
X67801328Y-68027328D01*
D26*
X64092328Y-70847328D02*
X66912328Y-68027328D01*
D25*
X62371328Y-70847328D02*
X64092328Y-70847328D01*
X61871328Y-72130328D02*
X62086328Y-72345328D01*
X62086328Y-72345328D02*
X64118328Y-72345328D01*
X64118328Y-72345328D02*
X65896329Y-70567328D01*
D26*
X65896329Y-70567328D02*
X67801328Y-70567328D01*
D25*
X61871328Y-70847328D02*
X61871328Y-72130328D01*
X67674329Y-72980328D02*
X67801329Y-73107328D01*
X61371328Y-72250089D02*
X62101568Y-72980328D01*
D26*
X62101568Y-72980328D02*
X67674329Y-72980328D01*
D25*
X61371328Y-70847329D02*
X61371328Y-72250089D01*
X59871328Y-73051328D02*
X60435328Y-73615328D01*
X59871328Y-70847329D02*
X59871328Y-73051328D01*
X65718528Y-73615329D02*
X60435328Y-73615328D01*
D26*
X67750528Y-75647329D02*
X65718528Y-73615329D01*
D25*
X67801328Y-75647329D02*
X67750528Y-75647329D01*
D26*
X66175728Y-76561729D02*
X67801328Y-78187328D01*
D25*
X59371328Y-73313328D02*
X60130528Y-74072528D01*
X59371328Y-70847328D02*
X59371328Y-73313328D01*
X66175728Y-74986928D02*
X65261328Y-74072528D01*
X65261328Y-74072528D02*
X60130528Y-74072528D01*
X66175728Y-76561729D02*
X66175728Y-74986928D01*
X65528028Y-77311029D02*
X66150328Y-77933328D01*
X66150328Y-77933328D02*
X66150328Y-79076328D01*
D26*
X66150328Y-79076328D02*
X67801328Y-80727328D01*
D25*
X58871329Y-73702328D02*
X59749528Y-74580528D01*
X58871328Y-70847329D02*
X58871329Y-73702328D01*
X65528028Y-75253628D02*
X64854929Y-74580528D01*
X64854929Y-74580528D02*
X59749528Y-74580528D01*
X65528028Y-77311029D02*
X65528028Y-75253628D01*
D26*
X65261328Y-84029329D02*
X65261328Y-82378328D01*
D25*
X58371329Y-74307550D02*
X59158817Y-75095039D01*
X65261328Y-78898528D02*
X65261328Y-82378328D01*
X58371328Y-70847328D02*
X58371329Y-74307550D01*
X64429639Y-75095039D02*
X65134328Y-75799728D01*
X65134328Y-75799728D02*
X65134328Y-78771528D01*
X65134328Y-78771528D02*
X65261328Y-78898528D01*
X59158817Y-75095039D02*
X64429639Y-75095039D01*
X65261328Y-82378328D02*
X65261328Y-84029329D01*
X65408528Y-59447328D02*
X65769328Y-59086529D01*
X65769328Y-59086529D02*
X65769328Y-57867328D01*
X64271328Y-59447328D02*
X65408528Y-59447328D01*
X65227200Y-49530000D02*
X62560200Y-52197000D01*
X62560200Y-52197000D02*
X62357000Y-52197000D01*
X65532000Y-49530000D02*
X65227200Y-49530000D01*
X62941200Y-51104800D02*
X62433200Y-51104800D01*
X63906400Y-50139600D02*
X62941200Y-51104800D01*
X63906400Y-49987200D02*
X63906400Y-50139600D01*
X64414400Y-49479200D02*
X63906400Y-49987200D01*
X64271328Y-59947328D02*
X65738528Y-59947328D01*
X65738528Y-59947328D02*
X65786000Y-59994800D01*
X65377528Y-60447328D02*
X65769328Y-60839128D01*
X64271329Y-60447328D02*
X65377528Y-60447328D01*
X60871328Y-55047328D02*
X60871329Y-56628688D01*
X59815569Y-57684448D02*
X59642848Y-57684448D01*
X60871329Y-56628688D02*
X59815569Y-57684448D01*
X48717200Y-47193200D02*
X48717200Y-48564800D01*
X47498000Y-49784000D02*
X47417828Y-49784000D01*
X47417828Y-49864172D02*
X47498000Y-49784000D01*
X48717200Y-48564800D02*
X47417828Y-49864172D01*
X49326800Y-44958000D02*
X49326800Y-43484800D01*
X48260000Y-42418000D02*
X47091600Y-42418000D01*
X49326800Y-43484800D02*
X48260000Y-42418000D01*
X49326800Y-45262800D02*
X49326800Y-44958000D01*
X49326800Y-46278800D02*
X49326800Y-45262800D01*
X47417828Y-50882328D02*
X47417828Y-50524572D01*
X47091600Y-42418000D02*
X46583600Y-41910000D01*
X46583600Y-40995600D02*
X45675328Y-40087328D01*
X46583600Y-41910000D02*
X46583600Y-40995600D01*
X45675328Y-40087328D02*
X44941328Y-40087328D01*
X52942328Y-66122328D02*
X54923528Y-64141128D01*
X54923528Y-59848529D02*
X54923528Y-64141128D01*
X49989578Y-56375078D02*
X49397950Y-55783450D01*
X49989578Y-56375078D02*
X51443728Y-56375078D01*
X51443728Y-56375078D02*
X51450078Y-56375078D01*
X51450078Y-56375078D02*
X54923528Y-59848529D01*
X47417828Y-50882328D02*
X47417828Y-50882328D01*
X47417828Y-50882328D02*
X47417828Y-50882328D01*
X47417829Y-52279328D02*
X47417828Y-50882328D01*
X47417828Y-53803328D02*
X47417829Y-52279328D01*
X51723128Y-69183028D02*
X51723128Y-67341528D01*
X51371328Y-69534828D02*
X51723128Y-69183028D01*
X51371329Y-70847328D02*
X51371328Y-69534828D01*
X51723128Y-67341528D02*
X52942328Y-66122328D01*
X49326800Y-46583600D02*
X48717200Y-47193200D01*
X47417828Y-49784000D02*
X47417828Y-50524572D01*
X49326800Y-46278800D02*
X49326800Y-46583600D01*
X48163450Y-55783450D02*
X47417828Y-55037828D01*
X47417828Y-55037828D02*
X47417828Y-53803328D01*
X49397950Y-55783450D02*
X48163450Y-55783450D01*
X59626500Y-51752500D02*
X59485500Y-51893500D01*
D26*
X57599600Y-51752500D02*
X57382400Y-51969700D01*
D27*
X59245500Y-51752500D02*
X59028300Y-51969700D01*
X59028300Y-51969700D02*
X57482400Y-51969700D01*
X59626500Y-51752500D02*
X59245500Y-51752500D01*
D25*
X60007500Y-50546000D02*
X59930000Y-50468500D01*
D26*
X57383700Y-50546000D02*
X57382400Y-50544700D01*
X60007500Y-50546000D02*
X57383700Y-50546000D01*
D27*
X58801000Y-50546000D02*
X58799700Y-50544700D01*
X58799700Y-50544700D02*
X57482400Y-50544700D01*
X60007500Y-50546000D02*
X58801000Y-50546000D01*
D25*
X56692800Y-49530000D02*
X56642000Y-49530000D01*
X59436000Y-49530000D02*
X56692800Y-49530000D01*
D26*
X55697100Y-49530000D02*
X54682400Y-50544700D01*
X56692800Y-49530000D02*
X55697100Y-49530000D01*
D25*
X59197300Y-75628500D02*
X62092900Y-75628500D01*
X62092900Y-75628500D02*
X62721328Y-76256928D01*
X57871328Y-74302528D02*
X59197300Y-75628500D01*
D26*
X62721328Y-84029328D02*
X62721329Y-82251328D01*
D25*
X62721328Y-76256928D02*
X62721329Y-82251328D01*
X62721329Y-82251328D02*
X62721328Y-84029328D01*
X57871328Y-70847328D02*
X57871328Y-74302528D01*
D26*
X60181328Y-84029328D02*
X60181328Y-82632328D01*
D25*
X60181328Y-82632328D02*
X60181328Y-84029328D01*
X60181328Y-80143128D02*
X60181328Y-82632328D01*
X57371328Y-70847329D02*
X57371328Y-73349388D01*
X57371328Y-73349388D02*
X56388000Y-74332716D01*
X60181328Y-79819500D02*
X60181328Y-79774828D01*
X60181328Y-80143128D02*
X60181328Y-79819500D01*
X60181328Y-79167828D02*
X59626500Y-78613000D01*
X59626500Y-78613000D02*
X58420000Y-78613000D01*
X58420000Y-78613000D02*
X57658000Y-77851000D01*
X57658000Y-77851000D02*
X57658000Y-76454000D01*
X57658000Y-76454000D02*
X56388000Y-75184000D01*
X56388000Y-75184000D02*
X56388000Y-74332716D01*
X60181328Y-79819500D02*
X60181328Y-79167828D01*
D26*
X57641328Y-84029328D02*
X57641328Y-82695828D01*
D25*
X57641328Y-82695828D02*
X57641328Y-84029328D01*
X57641328Y-80841628D02*
X57641328Y-82695828D01*
X57641328Y-80010000D02*
X57641328Y-79838328D01*
X57641328Y-80841628D02*
X57641328Y-80010000D01*
X55075928Y-74410348D02*
X54371328Y-73705748D01*
X54371328Y-70847328D02*
X54371328Y-73705748D01*
X55075928Y-77745428D02*
X55075928Y-74410348D01*
X57641328Y-78977328D02*
X57277000Y-78613000D01*
X57277000Y-78613000D02*
X55943500Y-78613000D01*
X55943500Y-78613000D02*
X55075928Y-77745428D01*
X57641328Y-80010000D02*
X57641328Y-78977328D01*
D26*
X55101328Y-84029329D02*
X55101328Y-82632329D01*
D25*
X55101328Y-80701929D02*
X55101328Y-82632329D01*
X55101328Y-79883000D02*
X55101328Y-79762129D01*
X55101328Y-80701929D02*
X55101328Y-79883000D01*
X52563868Y-76528708D02*
X52561328Y-76531248D01*
X53869428Y-75223148D02*
X53869428Y-73818528D01*
X53869428Y-73818528D02*
X53871329Y-73818528D01*
X53871329Y-73818528D02*
X53871329Y-70847328D01*
X52561328Y-76531248D02*
X53869428Y-75223148D01*
X55101328Y-79040828D02*
X54673500Y-78613000D01*
X54673500Y-78613000D02*
X53086000Y-78613000D01*
X53086000Y-78613000D02*
X52578000Y-78105000D01*
X52578000Y-78105000D02*
X52578000Y-76514576D01*
X52578000Y-76514576D02*
X52561328Y-76531248D01*
X55101328Y-79883000D02*
X55101328Y-79040828D01*
D26*
X52561328Y-84029329D02*
X52561328Y-82314828D01*
D25*
X52561328Y-79565500D02*
X52561328Y-79431928D01*
X52561328Y-82314828D02*
X52561328Y-79565500D01*
X53371328Y-70847328D02*
X53371328Y-75187849D01*
X52848349Y-75710828D02*
X50897629Y-75710828D01*
X53371328Y-75187849D02*
X52848349Y-75710828D01*
X50038000Y-76570457D02*
X50897629Y-75710828D01*
X52561328Y-78786828D02*
X52387500Y-78613000D01*
X52387500Y-78613000D02*
X50546000Y-78613000D01*
X50546000Y-78613000D02*
X50038000Y-78105000D01*
X50038000Y-78105000D02*
X50038000Y-76570457D01*
X52561328Y-79565500D02*
X52561328Y-78786828D01*
X49919728Y-83927728D02*
X50021328Y-84029328D01*
X50021328Y-84029328D02*
X50021328Y-83534028D01*
X52871328Y-70847328D02*
X52871328Y-74549000D01*
X52871328Y-74890672D02*
X52451000Y-75311000D01*
X52451000Y-75311000D02*
X51460400Y-75311000D01*
X52871328Y-74549000D02*
X52871328Y-74890672D01*
X51181000Y-75311000D02*
X50952400Y-75082400D01*
X50952400Y-75082400D02*
X49733200Y-75082400D01*
X49733200Y-75082400D02*
X49174400Y-75641200D01*
X49174400Y-75641200D02*
X49174400Y-76227556D01*
X51460400Y-75311000D02*
X51181000Y-75311000D01*
X49174400Y-77698600D02*
X48768000Y-78105000D01*
X48768000Y-78105000D02*
X48768000Y-82776001D01*
D26*
X48768000Y-82776001D02*
X50021328Y-84029329D01*
D25*
X49174400Y-75641200D02*
X49174400Y-77698600D01*
D26*
X64484472Y-31654528D02*
X63546828Y-31654528D01*
X64516000Y-31623000D02*
X64484472Y-31654528D01*
D25*
X48370328Y-72599329D02*
X47862328Y-72091328D01*
D26*
X48387000Y-72616000D02*
X47862328Y-72091328D01*
X48387000Y-75323700D02*
X48387000Y-72616000D01*
D27*
X57600000Y-34400000D02*
X57600000Y-36600000D01*
X57600000Y-36600000D02*
X59227000Y-38227000D01*
X59227000Y-38227000D02*
X59563000Y-38227000D01*
D26*
X59227000Y-38227000D02*
X59563000Y-38227000D01*
X57600000Y-36600000D02*
X59227000Y-38227000D01*
X59994800Y-41960800D02*
X59994800Y-38658800D01*
X59582050Y-42373550D02*
X59994800Y-41960800D01*
X59582050Y-42373550D02*
X59245500Y-42373550D01*
X58883550Y-42373550D02*
X58229500Y-41719500D01*
X58229500Y-41719500D02*
X57404000Y-41719500D01*
X57404000Y-41719500D02*
X56743600Y-42379900D01*
X56743600Y-42379900D02*
X56743600Y-45059600D01*
X59245500Y-42373550D02*
X58883550Y-42373550D01*
X59994800Y-38658800D02*
X59563000Y-38227000D01*
D25*
X64271328Y-61447328D02*
X65308128Y-61447328D01*
X65684400Y-61823600D02*
X65684400Y-62839600D01*
X65308128Y-61447328D02*
X65684400Y-61823600D01*
D27*
X56950000Y-34400000D02*
X56950000Y-37392000D01*
X56950000Y-37392000D02*
X57785000Y-38227000D01*
D26*
X56950000Y-37392000D02*
X57785000Y-38227000D01*
X52371328Y-55047328D02*
X52371328Y-53546672D01*
X52371328Y-53546672D02*
X52730400Y-53187600D01*
X52371328Y-53546672D02*
X52371328Y-53844528D01*
X52730400Y-53187600D02*
X52371328Y-53546672D01*
D25*
X55016400Y-47548800D02*
X55118000Y-47447200D01*
X52371328Y-55047328D02*
X52371328Y-53898800D01*
D27*
X56300000Y-34400000D02*
X56300000Y-38266000D01*
X56300000Y-38266000D02*
X56388000Y-38354000D01*
D26*
X56300000Y-38266000D02*
X56388000Y-38354000D01*
D25*
X52324000Y-48577500D02*
X52324000Y-47815500D01*
X51181000Y-49098200D02*
X51803300Y-49098200D01*
X51803300Y-49098200D02*
X52324000Y-48577500D01*
X54533800Y-58293000D02*
X54508400Y-58267600D01*
X56235600Y-59994800D02*
X54533800Y-58293000D01*
X56845200Y-63296800D02*
X56845200Y-60299600D01*
X56845200Y-60299600D02*
X56540400Y-59994800D01*
X56871328Y-70847328D02*
X56871328Y-68453728D01*
X56845200Y-68427600D02*
X56845200Y-63296800D01*
X56871328Y-68453728D02*
X56845200Y-68427600D01*
X56540400Y-59994800D02*
X56235600Y-59994800D01*
X53644800Y-57404000D02*
X53644800Y-56896000D01*
X53644800Y-56896000D02*
X53543200Y-56794400D01*
X54533800Y-58293000D02*
X53644800Y-57404000D01*
X48387000Y-54787800D02*
X48082200Y-54483000D01*
X48082200Y-54483000D02*
X48082200Y-50038000D01*
X48082200Y-50038000D02*
X49022000Y-49098200D01*
X50520600Y-49098200D02*
X50571400Y-49098200D01*
X49022000Y-49098200D02*
X50520600Y-49098200D01*
X50520600Y-49098200D02*
X51181000Y-49098200D01*
X51181000Y-49098200D02*
X51257200Y-49098200D01*
D26*
X52070000Y-43789600D02*
X52070000Y-42113200D01*
X52070000Y-43942000D02*
X52070000Y-43789600D01*
X52578000Y-41402000D02*
X52578000Y-40132000D01*
X52070000Y-41910000D02*
X52070000Y-42062400D01*
X52578000Y-41402000D02*
X52070000Y-41910000D01*
X53238400Y-45974000D02*
X52070000Y-44805600D01*
X52070000Y-44805600D02*
X52070000Y-43840400D01*
M02*
