G04 #@! TF.FileFunction,Legend,Top*
%FSLAX46Y46*%
G04 Gerber Fmt 4.6, Leading zero omitted, Abs format (unit mm)*
G04 Created by KiCad (PCBNEW 4.0.1-stable) date 10-Oct-16 12:47:22 PM*
%MOMM*%
G01*
G04 APERTURE LIST*
%ADD10C,0.100000*%
%ADD11C,0.150000*%
%ADD12C,0.273050*%
%ADD13C,0.190500*%
%ADD14C,0.508000*%
%ADD15C,0.254000*%
%ADD16C,0.002540*%
G04 APERTURE END LIST*
D10*
D11*
X52800000Y-28900000D02*
X52800000Y-33400000D01*
X50300000Y-28900000D02*
X52800000Y-28900000D01*
X50200000Y-28800000D02*
X50300000Y-28900000D01*
X59800000Y-28900000D02*
X62400000Y-28900000D01*
D12*
X49623739Y-88186986D02*
X49987805Y-88186986D01*
X50143834Y-88759090D02*
X49623739Y-88759090D01*
X49623739Y-87666890D01*
X50143834Y-87666890D01*
X50507901Y-88759090D02*
X51080005Y-88030957D01*
X50507901Y-88030957D02*
X51080005Y-88759090D01*
X51496082Y-88030957D02*
X51496082Y-89123157D01*
X51496082Y-88082967D02*
X51600101Y-88030957D01*
X51808139Y-88030957D01*
X51912158Y-88082967D01*
X51964167Y-88134976D01*
X52016177Y-88238995D01*
X52016177Y-88551052D01*
X51964167Y-88655071D01*
X51912158Y-88707081D01*
X51808139Y-88759090D01*
X51600101Y-88759090D01*
X51496082Y-88707081D01*
X52640291Y-88759090D02*
X52536272Y-88707081D01*
X52484263Y-88603062D01*
X52484263Y-87666890D01*
X53212396Y-88759090D02*
X53108377Y-88707081D01*
X53056368Y-88655071D01*
X53004358Y-88551052D01*
X53004358Y-88238995D01*
X53056368Y-88134976D01*
X53108377Y-88082967D01*
X53212396Y-88030957D01*
X53368425Y-88030957D01*
X53472444Y-88082967D01*
X53524453Y-88134976D01*
X53576463Y-88238995D01*
X53576463Y-88551052D01*
X53524453Y-88655071D01*
X53472444Y-88707081D01*
X53368425Y-88759090D01*
X53212396Y-88759090D01*
X54044549Y-88759090D02*
X54044549Y-88030957D01*
X54044549Y-88238995D02*
X54096558Y-88134976D01*
X54148568Y-88082967D01*
X54252587Y-88030957D01*
X54356606Y-88030957D01*
X55136749Y-88707081D02*
X55032730Y-88759090D01*
X54824692Y-88759090D01*
X54720673Y-88707081D01*
X54668663Y-88603062D01*
X54668663Y-88186986D01*
X54720673Y-88082967D01*
X54824692Y-88030957D01*
X55032730Y-88030957D01*
X55136749Y-88082967D01*
X55188758Y-88186986D01*
X55188758Y-88291005D01*
X54668663Y-88395024D01*
X55656844Y-88186986D02*
X56020910Y-88186986D01*
X56176939Y-88759090D02*
X55656844Y-88759090D01*
X55656844Y-87666890D01*
X56176939Y-87666890D01*
X56645025Y-88759090D02*
X56645025Y-88030957D01*
X56645025Y-88134976D02*
X56697034Y-88082967D01*
X56801053Y-88030957D01*
X56957082Y-88030957D01*
X57061101Y-88082967D01*
X57113110Y-88186986D01*
X57113110Y-88759090D01*
X57113110Y-88186986D02*
X57165120Y-88082967D01*
X57269139Y-88030957D01*
X57425167Y-88030957D01*
X57529187Y-88082967D01*
X57581196Y-88186986D01*
X57581196Y-88759090D01*
X58101292Y-88759090D02*
X58101292Y-87666890D01*
X58101292Y-88082967D02*
X58205311Y-88030957D01*
X58413349Y-88030957D01*
X58517368Y-88082967D01*
X58569377Y-88134976D01*
X58621387Y-88238995D01*
X58621387Y-88551052D01*
X58569377Y-88655071D01*
X58517368Y-88707081D01*
X58413349Y-88759090D01*
X58205311Y-88759090D01*
X58101292Y-88707081D01*
X59505549Y-88707081D02*
X59401530Y-88759090D01*
X59193492Y-88759090D01*
X59089473Y-88707081D01*
X59037463Y-88603062D01*
X59037463Y-88186986D01*
X59089473Y-88082967D01*
X59193492Y-88030957D01*
X59401530Y-88030957D01*
X59505549Y-88082967D01*
X59557558Y-88186986D01*
X59557558Y-88291005D01*
X59037463Y-88395024D01*
X60493729Y-88759090D02*
X60493729Y-87666890D01*
X60493729Y-88707081D02*
X60389710Y-88759090D01*
X60181672Y-88759090D01*
X60077653Y-88707081D01*
X60025644Y-88655071D01*
X59973634Y-88551052D01*
X59973634Y-88238995D01*
X60025644Y-88134976D01*
X60077653Y-88082967D01*
X60181672Y-88030957D01*
X60389710Y-88030957D01*
X60493729Y-88082967D01*
X61481910Y-88759090D02*
X61481910Y-87666890D01*
X61481910Y-88707081D02*
X61377891Y-88759090D01*
X61169853Y-88759090D01*
X61065834Y-88707081D01*
X61013825Y-88655071D01*
X60961815Y-88551052D01*
X60961815Y-88238995D01*
X61013825Y-88134976D01*
X61065834Y-88082967D01*
X61169853Y-88030957D01*
X61377891Y-88030957D01*
X61481910Y-88082967D01*
X62418082Y-88707081D02*
X62314063Y-88759090D01*
X62106025Y-88759090D01*
X62002006Y-88707081D01*
X61949996Y-88603062D01*
X61949996Y-88186986D01*
X62002006Y-88082967D01*
X62106025Y-88030957D01*
X62314063Y-88030957D01*
X62418082Y-88082967D01*
X62470091Y-88186986D01*
X62470091Y-88291005D01*
X61949996Y-88395024D01*
X63406262Y-88759090D02*
X63406262Y-87666890D01*
X63406262Y-88707081D02*
X63302243Y-88759090D01*
X63094205Y-88759090D01*
X62990186Y-88707081D01*
X62938177Y-88655071D01*
X62886167Y-88551052D01*
X62886167Y-88238995D01*
X62938177Y-88134976D01*
X62990186Y-88082967D01*
X63094205Y-88030957D01*
X63302243Y-88030957D01*
X63406262Y-88082967D01*
D11*
X59800000Y-33400000D02*
X59800000Y-28900000D01*
X52800000Y-33400000D02*
X59800000Y-33400000D01*
X47800000Y-88700000D02*
X48800000Y-89700000D01*
X65100000Y-88700000D02*
X64100000Y-89700000D01*
X48800000Y-89700000D02*
X64100000Y-89700000D01*
X43600000Y-27600000D02*
X43600000Y-86700000D01*
X69100000Y-86700000D02*
X69100000Y-27600000D01*
X63700000Y-27600000D02*
X69100000Y-27600000D01*
X50200000Y-28800000D02*
X49000000Y-27600000D01*
X49000000Y-27600000D02*
X43600000Y-27600000D01*
X45800000Y-88700000D02*
X47800000Y-88700000D01*
X67100000Y-88700000D02*
X65100000Y-88700000D01*
X62400000Y-28900000D02*
X63700000Y-27600000D01*
X67100000Y-88700000D02*
G75*
G03X69100000Y-86700000I0J2000000D01*
G01*
X43600000Y-86700000D02*
G75*
G03X45800000Y-88700000I2100000J100000D01*
G01*
D13*
X49417714Y-80144714D02*
X48982286Y-80144714D01*
X49200000Y-80144714D02*
X49200000Y-79382714D01*
X49127429Y-79491571D01*
X49054857Y-79564143D01*
X48982286Y-79600429D01*
X48260000Y-48858714D02*
X48260000Y-49475571D01*
X48296285Y-49548143D01*
X48332571Y-49584429D01*
X48405142Y-49620714D01*
X48550285Y-49620714D01*
X48622857Y-49584429D01*
X48659142Y-49548143D01*
X48695428Y-49475571D01*
X48695428Y-48858714D01*
X49022000Y-49584429D02*
X49130857Y-49620714D01*
X49312286Y-49620714D01*
X49384857Y-49584429D01*
X49421143Y-49548143D01*
X49457428Y-49475571D01*
X49457428Y-49403000D01*
X49421143Y-49330429D01*
X49384857Y-49294143D01*
X49312286Y-49257857D01*
X49167143Y-49221571D01*
X49094571Y-49185286D01*
X49058286Y-49149000D01*
X49022000Y-49076429D01*
X49022000Y-49003857D01*
X49058286Y-48931286D01*
X49094571Y-48895000D01*
X49167143Y-48858714D01*
X49348571Y-48858714D01*
X49457428Y-48895000D01*
X50038000Y-49221571D02*
X50146857Y-49257857D01*
X50183142Y-49294143D01*
X50219428Y-49366714D01*
X50219428Y-49475571D01*
X50183142Y-49548143D01*
X50146857Y-49584429D01*
X50074285Y-49620714D01*
X49784000Y-49620714D01*
X49784000Y-48858714D01*
X50038000Y-48858714D01*
X50110571Y-48895000D01*
X50146857Y-48931286D01*
X50183142Y-49003857D01*
X50183142Y-49076429D01*
X50146857Y-49149000D01*
X50110571Y-49185286D01*
X50038000Y-49221571D01*
X49784000Y-49221571D01*
X51380571Y-49221571D02*
X51489428Y-49257857D01*
X51525713Y-49294143D01*
X51561999Y-49366714D01*
X51561999Y-49475571D01*
X51525713Y-49548143D01*
X51489428Y-49584429D01*
X51416856Y-49620714D01*
X51126571Y-49620714D01*
X51126571Y-48858714D01*
X51380571Y-48858714D01*
X51453142Y-48895000D01*
X51489428Y-48931286D01*
X51525713Y-49003857D01*
X51525713Y-49076429D01*
X51489428Y-49149000D01*
X51453142Y-49185286D01*
X51380571Y-49221571D01*
X51126571Y-49221571D01*
X51997428Y-49620714D02*
X51924856Y-49584429D01*
X51888571Y-49548143D01*
X51852285Y-49475571D01*
X51852285Y-49257857D01*
X51888571Y-49185286D01*
X51924856Y-49149000D01*
X51997428Y-49112714D01*
X52106285Y-49112714D01*
X52178856Y-49149000D01*
X52215142Y-49185286D01*
X52251428Y-49257857D01*
X52251428Y-49475571D01*
X52215142Y-49548143D01*
X52178856Y-49584429D01*
X52106285Y-49620714D01*
X51997428Y-49620714D01*
X52686857Y-49620714D02*
X52614285Y-49584429D01*
X52578000Y-49548143D01*
X52541714Y-49475571D01*
X52541714Y-49257857D01*
X52578000Y-49185286D01*
X52614285Y-49149000D01*
X52686857Y-49112714D01*
X52795714Y-49112714D01*
X52868285Y-49149000D01*
X52904571Y-49185286D01*
X52940857Y-49257857D01*
X52940857Y-49475571D01*
X52904571Y-49548143D01*
X52868285Y-49584429D01*
X52795714Y-49620714D01*
X52686857Y-49620714D01*
X53158571Y-49112714D02*
X53448857Y-49112714D01*
X53267429Y-48858714D02*
X53267429Y-49511857D01*
X53303714Y-49584429D01*
X53376286Y-49620714D01*
X53448857Y-49620714D01*
X60488286Y-49620714D02*
X60234286Y-49257857D01*
X60052858Y-49620714D02*
X60052858Y-48858714D01*
X60343143Y-48858714D01*
X60415715Y-48895000D01*
X60452000Y-48931286D01*
X60488286Y-49003857D01*
X60488286Y-49112714D01*
X60452000Y-49185286D01*
X60415715Y-49221571D01*
X60343143Y-49257857D01*
X60052858Y-49257857D01*
X60814858Y-49221571D02*
X61068858Y-49221571D01*
X61177715Y-49620714D02*
X60814858Y-49620714D01*
X60814858Y-48858714D01*
X61177715Y-48858714D01*
X61468001Y-49584429D02*
X61576858Y-49620714D01*
X61758287Y-49620714D01*
X61830858Y-49584429D01*
X61867144Y-49548143D01*
X61903429Y-49475571D01*
X61903429Y-49403000D01*
X61867144Y-49330429D01*
X61830858Y-49294143D01*
X61758287Y-49257857D01*
X61613144Y-49221571D01*
X61540572Y-49185286D01*
X61504287Y-49149000D01*
X61468001Y-49076429D01*
X61468001Y-49003857D01*
X61504287Y-48931286D01*
X61540572Y-48895000D01*
X61613144Y-48858714D01*
X61794572Y-48858714D01*
X61903429Y-48895000D01*
X62230001Y-49221571D02*
X62484001Y-49221571D01*
X62592858Y-49620714D02*
X62230001Y-49620714D01*
X62230001Y-48858714D01*
X62592858Y-48858714D01*
X62810572Y-48858714D02*
X63246001Y-48858714D01*
X63028287Y-49620714D02*
X63028287Y-48858714D01*
D14*
X48229763Y-73260857D02*
X48907096Y-73260857D01*
X49197382Y-74325238D02*
X48229763Y-74325238D01*
X48229763Y-72293238D01*
X49197382Y-72293238D01*
X49874715Y-74325238D02*
X50939096Y-72970571D01*
X49874715Y-72970571D02*
X50939096Y-74325238D01*
X51713191Y-72970571D02*
X51713191Y-75002571D01*
X51713191Y-73067333D02*
X51906714Y-72970571D01*
X52293762Y-72970571D01*
X52487286Y-73067333D01*
X52584048Y-73164095D01*
X52680810Y-73357619D01*
X52680810Y-73938190D01*
X52584048Y-74131714D01*
X52487286Y-74228476D01*
X52293762Y-74325238D01*
X51906714Y-74325238D01*
X51713191Y-74228476D01*
X53841952Y-74325238D02*
X53648428Y-74228476D01*
X53551667Y-74034952D01*
X53551667Y-72293238D01*
X54906333Y-74325238D02*
X54712809Y-74228476D01*
X54616048Y-74131714D01*
X54519286Y-73938190D01*
X54519286Y-73357619D01*
X54616048Y-73164095D01*
X54712809Y-73067333D01*
X54906333Y-72970571D01*
X55196619Y-72970571D01*
X55390143Y-73067333D01*
X55486905Y-73164095D01*
X55583667Y-73357619D01*
X55583667Y-73938190D01*
X55486905Y-74131714D01*
X55390143Y-74228476D01*
X55196619Y-74325238D01*
X54906333Y-74325238D01*
X56454524Y-74325238D02*
X56454524Y-72970571D01*
X56454524Y-73357619D02*
X56551285Y-73164095D01*
X56648047Y-73067333D01*
X56841571Y-72970571D01*
X57035095Y-72970571D01*
X58486524Y-74228476D02*
X58293000Y-74325238D01*
X57905952Y-74325238D01*
X57712429Y-74228476D01*
X57615667Y-74034952D01*
X57615667Y-73260857D01*
X57712429Y-73067333D01*
X57905952Y-72970571D01*
X58293000Y-72970571D01*
X58486524Y-73067333D01*
X58583286Y-73260857D01*
X58583286Y-73454381D01*
X57615667Y-73647905D01*
X61002333Y-74325238D02*
X61002333Y-72293238D01*
X61679666Y-73744667D01*
X62356999Y-72293238D01*
X62356999Y-74325238D01*
X63131095Y-72293238D02*
X64388999Y-72293238D01*
X63711666Y-73067333D01*
X64001952Y-73067333D01*
X64195476Y-73164095D01*
X64292238Y-73260857D01*
X64388999Y-73454381D01*
X64388999Y-73938190D01*
X64292238Y-74131714D01*
X64195476Y-74228476D01*
X64001952Y-74325238D01*
X63421380Y-74325238D01*
X63227857Y-74228476D01*
X63131095Y-74131714D01*
D13*
X64697429Y-82078286D02*
X64733715Y-82042000D01*
X64806286Y-82005714D01*
X64987715Y-82005714D01*
X65060286Y-82042000D01*
X65096572Y-82078286D01*
X65132857Y-82150857D01*
X65132857Y-82223429D01*
X65096572Y-82332286D01*
X64661143Y-82767714D01*
X65132857Y-82767714D01*
X65386857Y-82005714D02*
X65858571Y-82005714D01*
X65604571Y-82296000D01*
X65713429Y-82296000D01*
X65786000Y-82332286D01*
X65822286Y-82368571D01*
X65858571Y-82441143D01*
X65858571Y-82622571D01*
X65822286Y-82695143D01*
X65786000Y-82731429D01*
X65713429Y-82767714D01*
X65495714Y-82767714D01*
X65423143Y-82731429D01*
X65386857Y-82695143D01*
X62157429Y-82078286D02*
X62193715Y-82042000D01*
X62266286Y-82005714D01*
X62447715Y-82005714D01*
X62520286Y-82042000D01*
X62556572Y-82078286D01*
X62592857Y-82150857D01*
X62592857Y-82223429D01*
X62556572Y-82332286D01*
X62121143Y-82767714D01*
X62592857Y-82767714D01*
X62883143Y-82078286D02*
X62919429Y-82042000D01*
X62992000Y-82005714D01*
X63173429Y-82005714D01*
X63246000Y-82042000D01*
X63282286Y-82078286D01*
X63318571Y-82150857D01*
X63318571Y-82223429D01*
X63282286Y-82332286D01*
X62846857Y-82767714D01*
X63318571Y-82767714D01*
X59617429Y-82078286D02*
X59653715Y-82042000D01*
X59726286Y-82005714D01*
X59907715Y-82005714D01*
X59980286Y-82042000D01*
X60016572Y-82078286D01*
X60052857Y-82150857D01*
X60052857Y-82223429D01*
X60016572Y-82332286D01*
X59581143Y-82767714D01*
X60052857Y-82767714D01*
X60778571Y-82767714D02*
X60343143Y-82767714D01*
X60560857Y-82767714D02*
X60560857Y-82005714D01*
X60488286Y-82114571D01*
X60415714Y-82187143D01*
X60343143Y-82223429D01*
X57077429Y-82078286D02*
X57113715Y-82042000D01*
X57186286Y-82005714D01*
X57367715Y-82005714D01*
X57440286Y-82042000D01*
X57476572Y-82078286D01*
X57512857Y-82150857D01*
X57512857Y-82223429D01*
X57476572Y-82332286D01*
X57041143Y-82767714D01*
X57512857Y-82767714D01*
X57984571Y-82005714D02*
X58057143Y-82005714D01*
X58129714Y-82042000D01*
X58166000Y-82078286D01*
X58202286Y-82150857D01*
X58238571Y-82296000D01*
X58238571Y-82477429D01*
X58202286Y-82622571D01*
X58166000Y-82695143D01*
X58129714Y-82731429D01*
X58057143Y-82767714D01*
X57984571Y-82767714D01*
X57912000Y-82731429D01*
X57875714Y-82695143D01*
X57839429Y-82622571D01*
X57803143Y-82477429D01*
X57803143Y-82296000D01*
X57839429Y-82150857D01*
X57875714Y-82078286D01*
X57912000Y-82042000D01*
X57984571Y-82005714D01*
X54972857Y-82767714D02*
X54537429Y-82767714D01*
X54755143Y-82767714D02*
X54755143Y-82005714D01*
X54682572Y-82114571D01*
X54610000Y-82187143D01*
X54537429Y-82223429D01*
X55335714Y-82767714D02*
X55480857Y-82767714D01*
X55553429Y-82731429D01*
X55589714Y-82695143D01*
X55662286Y-82586286D01*
X55698571Y-82441143D01*
X55698571Y-82150857D01*
X55662286Y-82078286D01*
X55626000Y-82042000D01*
X55553429Y-82005714D01*
X55408286Y-82005714D01*
X55335714Y-82042000D01*
X55299429Y-82078286D01*
X55263143Y-82150857D01*
X55263143Y-82332286D01*
X55299429Y-82404857D01*
X55335714Y-82441143D01*
X55408286Y-82477429D01*
X55553429Y-82477429D01*
X55626000Y-82441143D01*
X55662286Y-82404857D01*
X55698571Y-82332286D01*
X52432857Y-82767714D02*
X51997429Y-82767714D01*
X52215143Y-82767714D02*
X52215143Y-82005714D01*
X52142572Y-82114571D01*
X52070000Y-82187143D01*
X51997429Y-82223429D01*
X52868286Y-82332286D02*
X52795714Y-82296000D01*
X52759429Y-82259714D01*
X52723143Y-82187143D01*
X52723143Y-82150857D01*
X52759429Y-82078286D01*
X52795714Y-82042000D01*
X52868286Y-82005714D01*
X53013429Y-82005714D01*
X53086000Y-82042000D01*
X53122286Y-82078286D01*
X53158571Y-82150857D01*
X53158571Y-82187143D01*
X53122286Y-82259714D01*
X53086000Y-82296000D01*
X53013429Y-82332286D01*
X52868286Y-82332286D01*
X52795714Y-82368571D01*
X52759429Y-82404857D01*
X52723143Y-82477429D01*
X52723143Y-82622571D01*
X52759429Y-82695143D01*
X52795714Y-82731429D01*
X52868286Y-82767714D01*
X53013429Y-82767714D01*
X53086000Y-82731429D01*
X53122286Y-82695143D01*
X53158571Y-82622571D01*
X53158571Y-82477429D01*
X53122286Y-82404857D01*
X53086000Y-82368571D01*
X53013429Y-82332286D01*
X49892857Y-82767714D02*
X49457429Y-82767714D01*
X49675143Y-82767714D02*
X49675143Y-82005714D01*
X49602572Y-82114571D01*
X49530000Y-82187143D01*
X49457429Y-82223429D01*
X50146857Y-82005714D02*
X50654857Y-82005714D01*
X50328286Y-82767714D01*
X47352857Y-82767714D02*
X46917429Y-82767714D01*
X47135143Y-82767714D02*
X47135143Y-82005714D01*
X47062572Y-82114571D01*
X46990000Y-82187143D01*
X46917429Y-82223429D01*
X48006000Y-82005714D02*
X47860857Y-82005714D01*
X47788286Y-82042000D01*
X47752000Y-82078286D01*
X47679429Y-82187143D01*
X47643143Y-82332286D01*
X47643143Y-82622571D01*
X47679429Y-82695143D01*
X47715714Y-82731429D01*
X47788286Y-82767714D01*
X47933429Y-82767714D01*
X48006000Y-82731429D01*
X48042286Y-82695143D01*
X48078571Y-82622571D01*
X48078571Y-82441143D01*
X48042286Y-82368571D01*
X48006000Y-82332286D01*
X47933429Y-82296000D01*
X47788286Y-82296000D01*
X47715714Y-82332286D01*
X47679429Y-82368571D01*
X47643143Y-82441143D01*
X64680756Y-32086328D02*
X64608185Y-32050042D01*
X64499328Y-32050042D01*
X64390471Y-32086328D01*
X64317899Y-32158899D01*
X64281614Y-32231471D01*
X64245328Y-32376614D01*
X64245328Y-32485471D01*
X64281614Y-32630614D01*
X64317899Y-32703185D01*
X64390471Y-32775757D01*
X64499328Y-32812042D01*
X64571899Y-32812042D01*
X64680756Y-32775757D01*
X64717042Y-32739471D01*
X64717042Y-32485471D01*
X64571899Y-32485471D01*
X65043614Y-32812042D02*
X65043614Y-32050042D01*
X65479042Y-32812042D01*
X65479042Y-32050042D01*
X65841900Y-32812042D02*
X65841900Y-32050042D01*
X66023328Y-32050042D01*
X66132185Y-32086328D01*
X66204757Y-32158899D01*
X66241042Y-32231471D01*
X66277328Y-32376614D01*
X66277328Y-32485471D01*
X66241042Y-32630614D01*
X66204757Y-32703185D01*
X66132185Y-32775757D01*
X66023328Y-32812042D01*
X65841900Y-32812042D01*
X64281614Y-35061757D02*
X64862185Y-35061757D01*
X64571899Y-35352042D02*
X64571899Y-34771471D01*
X65587900Y-34590042D02*
X65225043Y-34590042D01*
X65188757Y-34952899D01*
X65225043Y-34916614D01*
X65297614Y-34880328D01*
X65479043Y-34880328D01*
X65551614Y-34916614D01*
X65587900Y-34952899D01*
X65624185Y-35025471D01*
X65624185Y-35206899D01*
X65587900Y-35279471D01*
X65551614Y-35315757D01*
X65479043Y-35352042D01*
X65297614Y-35352042D01*
X65225043Y-35315757D01*
X65188757Y-35279471D01*
X65841899Y-34590042D02*
X66095899Y-35352042D01*
X66349899Y-34590042D01*
X63882471Y-37130042D02*
X64354185Y-37130042D01*
X64100185Y-37420328D01*
X64209043Y-37420328D01*
X64281614Y-37456614D01*
X64317900Y-37492899D01*
X64354185Y-37565471D01*
X64354185Y-37746899D01*
X64317900Y-37819471D01*
X64281614Y-37855757D01*
X64209043Y-37892042D01*
X63991328Y-37892042D01*
X63918757Y-37855757D01*
X63882471Y-37819471D01*
X64680757Y-37819471D02*
X64717042Y-37855757D01*
X64680757Y-37892042D01*
X64644471Y-37855757D01*
X64680757Y-37819471D01*
X64680757Y-37892042D01*
X64971042Y-37130042D02*
X65442756Y-37130042D01*
X65188756Y-37420328D01*
X65297614Y-37420328D01*
X65370185Y-37456614D01*
X65406471Y-37492899D01*
X65442756Y-37565471D01*
X65442756Y-37746899D01*
X65406471Y-37819471D01*
X65370185Y-37855757D01*
X65297614Y-37892042D01*
X65079899Y-37892042D01*
X65007328Y-37855757D01*
X64971042Y-37819471D01*
X65660470Y-37130042D02*
X65914470Y-37892042D01*
X66168470Y-37130042D01*
X63755471Y-39670042D02*
X64009471Y-40432042D01*
X64263471Y-39670042D01*
X64771472Y-40032899D02*
X64880329Y-40069185D01*
X64916614Y-40105471D01*
X64952900Y-40178042D01*
X64952900Y-40286899D01*
X64916614Y-40359471D01*
X64880329Y-40395757D01*
X64807757Y-40432042D01*
X64517472Y-40432042D01*
X64517472Y-39670042D01*
X64771472Y-39670042D01*
X64844043Y-39706328D01*
X64880329Y-39742614D01*
X64916614Y-39815185D01*
X64916614Y-39887757D01*
X64880329Y-39960328D01*
X64844043Y-39996614D01*
X64771472Y-40032899D01*
X64517472Y-40032899D01*
X65243186Y-40214328D02*
X65606043Y-40214328D01*
X65170614Y-40432042D02*
X65424614Y-39670042D01*
X65678614Y-40432042D01*
X65823757Y-39670042D02*
X66259186Y-39670042D01*
X66041472Y-40432042D02*
X66041472Y-39670042D01*
X64844043Y-42972042D02*
X64844043Y-42210042D01*
X65025471Y-42210042D01*
X65134328Y-42246328D01*
X65206900Y-42318899D01*
X65243185Y-42391471D01*
X65279471Y-42536614D01*
X65279471Y-42645471D01*
X65243185Y-42790614D01*
X65206900Y-42863185D01*
X65134328Y-42935757D01*
X65025471Y-42972042D01*
X64844043Y-42972042D01*
X65606043Y-42681757D02*
X66186614Y-42681757D01*
X65896328Y-42972042D02*
X65896328Y-42391471D01*
X65098043Y-45512042D02*
X65098043Y-44750042D01*
X65279471Y-44750042D01*
X65388328Y-44786328D01*
X65460900Y-44858899D01*
X65497185Y-44931471D01*
X65533471Y-45076614D01*
X65533471Y-45185471D01*
X65497185Y-45330614D01*
X65460900Y-45403185D01*
X65388328Y-45475757D01*
X65279471Y-45512042D01*
X65098043Y-45512042D01*
X65860043Y-45221757D02*
X66440614Y-45221757D01*
X65225043Y-47834328D02*
X65587900Y-47834328D01*
X65152471Y-48052042D02*
X65406471Y-47290042D01*
X65660471Y-48052042D01*
X66059614Y-47290042D02*
X66132186Y-47290042D01*
X66204757Y-47326328D01*
X66241043Y-47362614D01*
X66277329Y-47435185D01*
X66313614Y-47580328D01*
X66313614Y-47761757D01*
X66277329Y-47906899D01*
X66241043Y-47979471D01*
X66204757Y-48015757D01*
X66132186Y-48052042D01*
X66059614Y-48052042D01*
X65987043Y-48015757D01*
X65950757Y-47979471D01*
X65914472Y-47906899D01*
X65878186Y-47761757D01*
X65878186Y-47580328D01*
X65914472Y-47435185D01*
X65950757Y-47362614D01*
X65987043Y-47326328D01*
X66059614Y-47290042D01*
X65225044Y-50374328D02*
X65587901Y-50374328D01*
X65152472Y-50592042D02*
X65406472Y-49830042D01*
X65660472Y-50592042D01*
X66313615Y-50592042D02*
X65878187Y-50592042D01*
X66095901Y-50592042D02*
X66095901Y-49830042D01*
X66023330Y-49938899D01*
X65950758Y-50011471D01*
X65878187Y-50047757D01*
X65225044Y-52914328D02*
X65587901Y-52914328D01*
X65152472Y-53132042D02*
X65406472Y-52370042D01*
X65660472Y-53132042D01*
X65878187Y-52442614D02*
X65914473Y-52406328D01*
X65987044Y-52370042D01*
X66168473Y-52370042D01*
X66241044Y-52406328D01*
X66277330Y-52442614D01*
X66313615Y-52515185D01*
X66313615Y-52587757D01*
X66277330Y-52696614D01*
X65841901Y-53132042D01*
X66313615Y-53132042D01*
X65225043Y-55454328D02*
X65587900Y-55454328D01*
X65152471Y-55672042D02*
X65406471Y-54910042D01*
X65660471Y-55672042D01*
X65841900Y-54910042D02*
X66313614Y-54910042D01*
X66059614Y-55200328D01*
X66168472Y-55200328D01*
X66241043Y-55236614D01*
X66277329Y-55272899D01*
X66313614Y-55345471D01*
X66313614Y-55526899D01*
X66277329Y-55599471D01*
X66241043Y-55635757D01*
X66168472Y-55672042D01*
X65950757Y-55672042D01*
X65878186Y-55635757D01*
X65841900Y-55599471D01*
X65225043Y-57994328D02*
X65587900Y-57994328D01*
X65152471Y-58212042D02*
X65406471Y-57450042D01*
X65660471Y-58212042D01*
X66241043Y-57704042D02*
X66241043Y-58212042D01*
X66059614Y-57413757D02*
X65878186Y-57958042D01*
X66349900Y-57958042D01*
X65152472Y-59990042D02*
X65624186Y-59990042D01*
X65370186Y-60280328D01*
X65479044Y-60280328D01*
X65551615Y-60316614D01*
X65587901Y-60352899D01*
X65624186Y-60425471D01*
X65624186Y-60606899D01*
X65587901Y-60679471D01*
X65551615Y-60715757D01*
X65479044Y-60752042D01*
X65261329Y-60752042D01*
X65188758Y-60715757D01*
X65152472Y-60679471D01*
X65914472Y-60062614D02*
X65950758Y-60026328D01*
X66023329Y-59990042D01*
X66204758Y-59990042D01*
X66277329Y-60026328D01*
X66313615Y-60062614D01*
X66349900Y-60135185D01*
X66349900Y-60207757D01*
X66313615Y-60316614D01*
X65878186Y-60752042D01*
X66349900Y-60752042D01*
X65152472Y-62530042D02*
X65624186Y-62530042D01*
X65370186Y-62820328D01*
X65479044Y-62820328D01*
X65551615Y-62856614D01*
X65587901Y-62892899D01*
X65624186Y-62965471D01*
X65624186Y-63146899D01*
X65587901Y-63219471D01*
X65551615Y-63255757D01*
X65479044Y-63292042D01*
X65261329Y-63292042D01*
X65188758Y-63255757D01*
X65152472Y-63219471D01*
X66349900Y-63292042D02*
X65914472Y-63292042D01*
X66132186Y-63292042D02*
X66132186Y-62530042D01*
X66059615Y-62638899D01*
X65987043Y-62711471D01*
X65914472Y-62747757D01*
X65152471Y-65070042D02*
X65624185Y-65070042D01*
X65370185Y-65360328D01*
X65479043Y-65360328D01*
X65551614Y-65396614D01*
X65587900Y-65432899D01*
X65624185Y-65505471D01*
X65624185Y-65686899D01*
X65587900Y-65759471D01*
X65551614Y-65795757D01*
X65479043Y-65832042D01*
X65261328Y-65832042D01*
X65188757Y-65795757D01*
X65152471Y-65759471D01*
X66095899Y-65070042D02*
X66168471Y-65070042D01*
X66241042Y-65106328D01*
X66277328Y-65142614D01*
X66313614Y-65215185D01*
X66349899Y-65360328D01*
X66349899Y-65541757D01*
X66313614Y-65686899D01*
X66277328Y-65759471D01*
X66241042Y-65795757D01*
X66168471Y-65832042D01*
X66095899Y-65832042D01*
X66023328Y-65795757D01*
X65987042Y-65759471D01*
X65950757Y-65686899D01*
X65914471Y-65541757D01*
X65914471Y-65360328D01*
X65950757Y-65215185D01*
X65987042Y-65142614D01*
X66023328Y-65106328D01*
X66095899Y-65070042D01*
X65188757Y-67682614D02*
X65225043Y-67646328D01*
X65297614Y-67610042D01*
X65479043Y-67610042D01*
X65551614Y-67646328D01*
X65587900Y-67682614D01*
X65624185Y-67755185D01*
X65624185Y-67827757D01*
X65587900Y-67936614D01*
X65152471Y-68372042D01*
X65624185Y-68372042D01*
X65987042Y-68372042D02*
X66132185Y-68372042D01*
X66204757Y-68335757D01*
X66241042Y-68299471D01*
X66313614Y-68190614D01*
X66349899Y-68045471D01*
X66349899Y-67755185D01*
X66313614Y-67682614D01*
X66277328Y-67646328D01*
X66204757Y-67610042D01*
X66059614Y-67610042D01*
X65987042Y-67646328D01*
X65950757Y-67682614D01*
X65914471Y-67755185D01*
X65914471Y-67936614D01*
X65950757Y-68009185D01*
X65987042Y-68045471D01*
X66059614Y-68081757D01*
X66204757Y-68081757D01*
X66277328Y-68045471D01*
X66313614Y-68009185D01*
X66349899Y-67936614D01*
X65188757Y-70222614D02*
X65225043Y-70186328D01*
X65297614Y-70150042D01*
X65479043Y-70150042D01*
X65551614Y-70186328D01*
X65587900Y-70222614D01*
X65624185Y-70295185D01*
X65624185Y-70367757D01*
X65587900Y-70476614D01*
X65152471Y-70912042D01*
X65624185Y-70912042D01*
X66059614Y-70476614D02*
X65987042Y-70440328D01*
X65950757Y-70404042D01*
X65914471Y-70331471D01*
X65914471Y-70295185D01*
X65950757Y-70222614D01*
X65987042Y-70186328D01*
X66059614Y-70150042D01*
X66204757Y-70150042D01*
X66277328Y-70186328D01*
X66313614Y-70222614D01*
X66349899Y-70295185D01*
X66349899Y-70331471D01*
X66313614Y-70404042D01*
X66277328Y-70440328D01*
X66204757Y-70476614D01*
X66059614Y-70476614D01*
X65987042Y-70512899D01*
X65950757Y-70549185D01*
X65914471Y-70621757D01*
X65914471Y-70766899D01*
X65950757Y-70839471D01*
X65987042Y-70875757D01*
X66059614Y-70912042D01*
X66204757Y-70912042D01*
X66277328Y-70875757D01*
X66313614Y-70839471D01*
X66349899Y-70766899D01*
X66349899Y-70621757D01*
X66313614Y-70549185D01*
X66277328Y-70512899D01*
X66204757Y-70476614D01*
X65188758Y-72762614D02*
X65225044Y-72726328D01*
X65297615Y-72690042D01*
X65479044Y-72690042D01*
X65551615Y-72726328D01*
X65587901Y-72762614D01*
X65624186Y-72835185D01*
X65624186Y-72907757D01*
X65587901Y-73016614D01*
X65152472Y-73452042D01*
X65624186Y-73452042D01*
X65878186Y-72690042D02*
X66386186Y-72690042D01*
X66059615Y-73452042D01*
X65188758Y-75302614D02*
X65225044Y-75266328D01*
X65297615Y-75230042D01*
X65479044Y-75230042D01*
X65551615Y-75266328D01*
X65587901Y-75302614D01*
X65624186Y-75375185D01*
X65624186Y-75447757D01*
X65587901Y-75556614D01*
X65152472Y-75992042D01*
X65624186Y-75992042D01*
X66277329Y-75230042D02*
X66132186Y-75230042D01*
X66059615Y-75266328D01*
X66023329Y-75302614D01*
X65950758Y-75411471D01*
X65914472Y-75556614D01*
X65914472Y-75846899D01*
X65950758Y-75919471D01*
X65987043Y-75955757D01*
X66059615Y-75992042D01*
X66204758Y-75992042D01*
X66277329Y-75955757D01*
X66313615Y-75919471D01*
X66349900Y-75846899D01*
X66349900Y-75665471D01*
X66313615Y-75592899D01*
X66277329Y-75556614D01*
X66204758Y-75520328D01*
X66059615Y-75520328D01*
X65987043Y-75556614D01*
X65950758Y-75592899D01*
X65914472Y-75665471D01*
X65188757Y-77842614D02*
X65225043Y-77806328D01*
X65297614Y-77770042D01*
X65479043Y-77770042D01*
X65551614Y-77806328D01*
X65587900Y-77842614D01*
X65624185Y-77915185D01*
X65624185Y-77987757D01*
X65587900Y-78096614D01*
X65152471Y-78532042D01*
X65624185Y-78532042D01*
X66313614Y-77770042D02*
X65950757Y-77770042D01*
X65914471Y-78132899D01*
X65950757Y-78096614D01*
X66023328Y-78060328D01*
X66204757Y-78060328D01*
X66277328Y-78096614D01*
X66313614Y-78132899D01*
X66349899Y-78205471D01*
X66349899Y-78386899D01*
X66313614Y-78459471D01*
X66277328Y-78495757D01*
X66204757Y-78532042D01*
X66023328Y-78532042D01*
X65950757Y-78495757D01*
X65914471Y-78459471D01*
X65188757Y-80382614D02*
X65225043Y-80346328D01*
X65297614Y-80310042D01*
X65479043Y-80310042D01*
X65551614Y-80346328D01*
X65587900Y-80382614D01*
X65624185Y-80455185D01*
X65624185Y-80527757D01*
X65587900Y-80636614D01*
X65152471Y-81072042D01*
X65624185Y-81072042D01*
X66277328Y-80564042D02*
X66277328Y-81072042D01*
X66095899Y-80273757D02*
X65914471Y-80818042D01*
X66386185Y-80818042D01*
X46828185Y-81072042D02*
X46392757Y-81072042D01*
X46610471Y-81072042D02*
X46610471Y-80310042D01*
X46537900Y-80418899D01*
X46465328Y-80491471D01*
X46392757Y-80527757D01*
X47517614Y-80310042D02*
X47154757Y-80310042D01*
X47118471Y-80672899D01*
X47154757Y-80636614D01*
X47227328Y-80600328D01*
X47408757Y-80600328D01*
X47481328Y-80636614D01*
X47517614Y-80672899D01*
X47553899Y-80745471D01*
X47553899Y-80926899D01*
X47517614Y-80999471D01*
X47481328Y-81035757D01*
X47408757Y-81072042D01*
X47227328Y-81072042D01*
X47154757Y-81035757D01*
X47118471Y-80999471D01*
X46828185Y-78532042D02*
X46392757Y-78532042D01*
X46610471Y-78532042D02*
X46610471Y-77770042D01*
X46537900Y-77878899D01*
X46465328Y-77951471D01*
X46392757Y-77987757D01*
X47481328Y-78024042D02*
X47481328Y-78532042D01*
X47299899Y-77733757D02*
X47118471Y-78278042D01*
X47590185Y-78278042D01*
X46828185Y-75992043D02*
X46392757Y-75992043D01*
X46610471Y-75992043D02*
X46610471Y-75230043D01*
X46537900Y-75338900D01*
X46465328Y-75411472D01*
X46392757Y-75447758D01*
X47082185Y-75230043D02*
X47553899Y-75230043D01*
X47299899Y-75520329D01*
X47408757Y-75520329D01*
X47481328Y-75556615D01*
X47517614Y-75592900D01*
X47553899Y-75665472D01*
X47553899Y-75846900D01*
X47517614Y-75919472D01*
X47481328Y-75955758D01*
X47408757Y-75992043D01*
X47191042Y-75992043D01*
X47118471Y-75955758D01*
X47082185Y-75919472D01*
X46828186Y-73452042D02*
X46392758Y-73452042D01*
X46610472Y-73452042D02*
X46610472Y-72690042D01*
X46537901Y-72798899D01*
X46465329Y-72871471D01*
X46392758Y-72907757D01*
X47118472Y-72762614D02*
X47154758Y-72726328D01*
X47227329Y-72690042D01*
X47408758Y-72690042D01*
X47481329Y-72726328D01*
X47517615Y-72762614D01*
X47553900Y-72835185D01*
X47553900Y-72907757D01*
X47517615Y-73016614D01*
X47082186Y-73452042D01*
X47553900Y-73452042D01*
X46828185Y-70912042D02*
X46392757Y-70912042D01*
X46610471Y-70912042D02*
X46610471Y-70150042D01*
X46537900Y-70258899D01*
X46465328Y-70331471D01*
X46392757Y-70367757D01*
X47553899Y-70912042D02*
X47118471Y-70912042D01*
X47336185Y-70912042D02*
X47336185Y-70150042D01*
X47263614Y-70258899D01*
X47191042Y-70331471D01*
X47118471Y-70367757D01*
X46828185Y-68372042D02*
X46392757Y-68372042D01*
X46610471Y-68372042D02*
X46610471Y-67610042D01*
X46537900Y-67718899D01*
X46465328Y-67791471D01*
X46392757Y-67827757D01*
X47299899Y-67610042D02*
X47372471Y-67610042D01*
X47445042Y-67646328D01*
X47481328Y-67682614D01*
X47517614Y-67755185D01*
X47553899Y-67900328D01*
X47553899Y-68081757D01*
X47517614Y-68226899D01*
X47481328Y-68299471D01*
X47445042Y-68335757D01*
X47372471Y-68372042D01*
X47299899Y-68372042D01*
X47227328Y-68335757D01*
X47191042Y-68299471D01*
X47154757Y-68226899D01*
X47118471Y-68081757D01*
X47118471Y-67900328D01*
X47154757Y-67755185D01*
X47191042Y-67682614D01*
X47227328Y-67646328D01*
X47299899Y-67610042D01*
X46574185Y-65832042D02*
X46719328Y-65832042D01*
X46791900Y-65795757D01*
X46828185Y-65759471D01*
X46900757Y-65650614D01*
X46937042Y-65505471D01*
X46937042Y-65215185D01*
X46900757Y-65142614D01*
X46864471Y-65106328D01*
X46791900Y-65070042D01*
X46646757Y-65070042D01*
X46574185Y-65106328D01*
X46537900Y-65142614D01*
X46501614Y-65215185D01*
X46501614Y-65396614D01*
X46537900Y-65469185D01*
X46574185Y-65505471D01*
X46646757Y-65541757D01*
X46791900Y-65541757D01*
X46864471Y-65505471D01*
X46900757Y-65469185D01*
X46937042Y-65396614D01*
X46646757Y-62856615D02*
X46574185Y-62820329D01*
X46537900Y-62784043D01*
X46501614Y-62711472D01*
X46501614Y-62675186D01*
X46537900Y-62602615D01*
X46574185Y-62566329D01*
X46646757Y-62530043D01*
X46791900Y-62530043D01*
X46864471Y-62566329D01*
X46900757Y-62602615D01*
X46937042Y-62675186D01*
X46937042Y-62711472D01*
X46900757Y-62784043D01*
X46864471Y-62820329D01*
X46791900Y-62856615D01*
X46646757Y-62856615D01*
X46574185Y-62892900D01*
X46537900Y-62929186D01*
X46501614Y-63001758D01*
X46501614Y-63146900D01*
X46537900Y-63219472D01*
X46574185Y-63255758D01*
X46646757Y-63292043D01*
X46791900Y-63292043D01*
X46864471Y-63255758D01*
X46900757Y-63219472D01*
X46937042Y-63146900D01*
X46937042Y-63001758D01*
X46900757Y-62929186D01*
X46864471Y-62892900D01*
X46791900Y-62856615D01*
X46465328Y-59990042D02*
X46973328Y-59990042D01*
X46646757Y-60752042D01*
X46864471Y-57450042D02*
X46719328Y-57450042D01*
X46646757Y-57486328D01*
X46610471Y-57522614D01*
X46537900Y-57631471D01*
X46501614Y-57776614D01*
X46501614Y-58066899D01*
X46537900Y-58139471D01*
X46574185Y-58175757D01*
X46646757Y-58212042D01*
X46791900Y-58212042D01*
X46864471Y-58175757D01*
X46900757Y-58139471D01*
X46937042Y-58066899D01*
X46937042Y-57885471D01*
X46900757Y-57812899D01*
X46864471Y-57776614D01*
X46791900Y-57740328D01*
X46646757Y-57740328D01*
X46574185Y-57776614D01*
X46537900Y-57812899D01*
X46501614Y-57885471D01*
X46900757Y-54910042D02*
X46537900Y-54910042D01*
X46501614Y-55272899D01*
X46537900Y-55236614D01*
X46610471Y-55200328D01*
X46791900Y-55200328D01*
X46864471Y-55236614D01*
X46900757Y-55272899D01*
X46937042Y-55345471D01*
X46937042Y-55526899D01*
X46900757Y-55599471D01*
X46864471Y-55635757D01*
X46791900Y-55672042D01*
X46610471Y-55672042D01*
X46537900Y-55635757D01*
X46501614Y-55599471D01*
X46864471Y-52624043D02*
X46864471Y-53132043D01*
X46683042Y-52333758D02*
X46501614Y-52878043D01*
X46973328Y-52878043D01*
X46465328Y-49830042D02*
X46937042Y-49830042D01*
X46683042Y-50120328D01*
X46791900Y-50120328D01*
X46864471Y-50156614D01*
X46900757Y-50192899D01*
X46937042Y-50265471D01*
X46937042Y-50446899D01*
X46900757Y-50519471D01*
X46864471Y-50555757D01*
X46791900Y-50592042D01*
X46574185Y-50592042D01*
X46501614Y-50555757D01*
X46465328Y-50519471D01*
X46501614Y-47362614D02*
X46537900Y-47326328D01*
X46610471Y-47290042D01*
X46791900Y-47290042D01*
X46864471Y-47326328D01*
X46900757Y-47362614D01*
X46937042Y-47435185D01*
X46937042Y-47507757D01*
X46900757Y-47616614D01*
X46465328Y-48052042D01*
X46937042Y-48052042D01*
X46937042Y-45512042D02*
X46501614Y-45512042D01*
X46719328Y-45512042D02*
X46719328Y-44750042D01*
X46646757Y-44858899D01*
X46574185Y-44931471D01*
X46501614Y-44967757D01*
X46683042Y-42210042D02*
X46755614Y-42210042D01*
X46828185Y-42246328D01*
X46864471Y-42282614D01*
X46900757Y-42355185D01*
X46937042Y-42500328D01*
X46937042Y-42681757D01*
X46900757Y-42826899D01*
X46864471Y-42899471D01*
X46828185Y-42935757D01*
X46755614Y-42972042D01*
X46683042Y-42972042D01*
X46610471Y-42935757D01*
X46574185Y-42899471D01*
X46537900Y-42826899D01*
X46501614Y-42681757D01*
X46501614Y-42500328D01*
X46537900Y-42355185D01*
X46574185Y-42282614D01*
X46610471Y-42246328D01*
X46683042Y-42210042D01*
X46483473Y-40432042D02*
X46483473Y-39670042D01*
X46810044Y-40395757D02*
X46918901Y-40432042D01*
X47100330Y-40432042D01*
X47172901Y-40395757D01*
X47209187Y-40359471D01*
X47245472Y-40286899D01*
X47245472Y-40214328D01*
X47209187Y-40141757D01*
X47172901Y-40105471D01*
X47100330Y-40069185D01*
X46955187Y-40032899D01*
X46882615Y-39996614D01*
X46846330Y-39960328D01*
X46810044Y-39887757D01*
X46810044Y-39815185D01*
X46846330Y-39742614D01*
X46882615Y-39706328D01*
X46955187Y-39670042D01*
X47136615Y-39670042D01*
X47245472Y-39706328D01*
X47572044Y-40432042D02*
X47572044Y-39670042D01*
X47862329Y-39670042D01*
X47934901Y-39706328D01*
X47971186Y-39742614D01*
X48007472Y-39815185D01*
X48007472Y-39924042D01*
X47971186Y-39996614D01*
X47934901Y-40032899D01*
X47862329Y-40069185D01*
X47572044Y-40069185D01*
X47064043Y-37892042D02*
X46810043Y-37529185D01*
X46628615Y-37892042D02*
X46628615Y-37130042D01*
X46918900Y-37130042D01*
X46991472Y-37166328D01*
X47027757Y-37202614D01*
X47064043Y-37275185D01*
X47064043Y-37384042D01*
X47027757Y-37456614D01*
X46991472Y-37492899D01*
X46918900Y-37529185D01*
X46628615Y-37529185D01*
X47354329Y-37855757D02*
X47463186Y-37892042D01*
X47644615Y-37892042D01*
X47717186Y-37855757D01*
X47753472Y-37819471D01*
X47789757Y-37746899D01*
X47789757Y-37674328D01*
X47753472Y-37601757D01*
X47717186Y-37565471D01*
X47644615Y-37529185D01*
X47499472Y-37492899D01*
X47426900Y-37456614D01*
X47390615Y-37420328D01*
X47354329Y-37347757D01*
X47354329Y-37275185D01*
X47390615Y-37202614D01*
X47426900Y-37166328D01*
X47499472Y-37130042D01*
X47680900Y-37130042D01*
X47789757Y-37166328D01*
X48007471Y-37130042D02*
X48442900Y-37130042D01*
X48225186Y-37892042D02*
X48225186Y-37130042D01*
X46447186Y-36998688D02*
X48515471Y-36998688D01*
X46501614Y-35061757D02*
X47082185Y-35061757D01*
X46791899Y-35352042D02*
X46791899Y-34771471D01*
X47807900Y-34590042D02*
X47445043Y-34590042D01*
X47408757Y-34952899D01*
X47445043Y-34916614D01*
X47517614Y-34880328D01*
X47699043Y-34880328D01*
X47771614Y-34916614D01*
X47807900Y-34952899D01*
X47844185Y-35025471D01*
X47844185Y-35206899D01*
X47807900Y-35279471D01*
X47771614Y-35315757D01*
X47699043Y-35352042D01*
X47517614Y-35352042D01*
X47445043Y-35315757D01*
X47408757Y-35279471D01*
X48061899Y-34590042D02*
X48315899Y-35352042D01*
X48569899Y-34590042D01*
X46900756Y-32086328D02*
X46828185Y-32050042D01*
X46719328Y-32050042D01*
X46610471Y-32086328D01*
X46537899Y-32158899D01*
X46501614Y-32231471D01*
X46465328Y-32376614D01*
X46465328Y-32485471D01*
X46501614Y-32630614D01*
X46537899Y-32703185D01*
X46610471Y-32775757D01*
X46719328Y-32812042D01*
X46791899Y-32812042D01*
X46900756Y-32775757D01*
X46937042Y-32739471D01*
X46937042Y-32485471D01*
X46791899Y-32485471D01*
X47263614Y-32812042D02*
X47263614Y-32050042D01*
X47699042Y-32812042D01*
X47699042Y-32050042D01*
X48061900Y-32812042D02*
X48061900Y-32050042D01*
X48243328Y-32050042D01*
X48352185Y-32086328D01*
X48424757Y-32158899D01*
X48461042Y-32231471D01*
X48497328Y-32376614D01*
X48497328Y-32485471D01*
X48461042Y-32630614D01*
X48424757Y-32703185D01*
X48352185Y-32775757D01*
X48243328Y-32812042D01*
X48061900Y-32812042D01*
D11*
X50308000Y-80883000D02*
X49808000Y-80883000D01*
X49808000Y-80883000D02*
X49808000Y-76383000D01*
X49808000Y-76383000D02*
X62808000Y-76383000D01*
X62808000Y-76383000D02*
X62808000Y-80883000D01*
X62808000Y-80883000D02*
X62308000Y-80883000D01*
X57808000Y-80883000D02*
X62308000Y-80883000D01*
X54808000Y-80883000D02*
X50308000Y-80883000D01*
X57808000Y-80883000D02*
X57808000Y-81383000D01*
X57808000Y-81383000D02*
X57308000Y-81383000D01*
X54808000Y-80883000D02*
X54808000Y-81383000D01*
X54808000Y-81383000D02*
X55308000Y-81383000D01*
X55308000Y-81383000D02*
X57308000Y-81383000D01*
X63074400Y-40494000D02*
X63074400Y-41294000D01*
X62915821Y-40294000D02*
G75*
G03X62915821Y-40294000I-141421J0D01*
G01*
X62323980Y-40444420D02*
X62323980Y-41343580D01*
X62323980Y-41343580D02*
X62722760Y-41343580D01*
X62722760Y-40444420D02*
X62722760Y-41343580D01*
X62323980Y-40444420D02*
X62722760Y-40444420D01*
X61026040Y-40444420D02*
X61026040Y-41343580D01*
X61026040Y-41343580D02*
X61424820Y-41343580D01*
X61424820Y-40444420D02*
X61424820Y-41343580D01*
X61026040Y-40444420D02*
X61424820Y-40444420D01*
X61874400Y-40444420D02*
X61874400Y-40594280D01*
X61874400Y-40594280D02*
X62174120Y-40594280D01*
X62174120Y-40444420D02*
X62174120Y-40594280D01*
X61874400Y-40444420D02*
X62174120Y-40444420D01*
X61874400Y-41193720D02*
X61874400Y-41343580D01*
X61874400Y-41343580D02*
X62174120Y-41343580D01*
X62174120Y-41193720D02*
X62174120Y-41343580D01*
X61874400Y-41193720D02*
X62174120Y-41193720D01*
X61874400Y-40744140D02*
X61874400Y-41043860D01*
X61874400Y-41043860D02*
X62174120Y-41043860D01*
X62174120Y-40744140D02*
X62174120Y-41043860D01*
X61874400Y-40744140D02*
X62174120Y-40744140D01*
X62323980Y-40495220D02*
X61424820Y-40495220D01*
X62323980Y-41292780D02*
X61424820Y-41292780D01*
X63496328Y-55822328D02*
X62736328Y-55822328D01*
X63496328Y-70072328D02*
X62736328Y-70072328D01*
X49246328Y-70072328D02*
X50006328Y-70072328D01*
X49246328Y-55822328D02*
X50006328Y-55822328D01*
X63496328Y-55822328D02*
X63496328Y-56582328D01*
X49246328Y-55822328D02*
X49246328Y-56582328D01*
X49246328Y-70072328D02*
X49246328Y-69312328D01*
X63496328Y-70072328D02*
X63496328Y-69312328D01*
X62736328Y-55822328D02*
X62736328Y-54297328D01*
X63146828Y-31203828D02*
X63946828Y-31203828D01*
X63088249Y-31503828D02*
G75*
G03X63088249Y-31503828I-141421J0D01*
G01*
X63097248Y-31954248D02*
X63996408Y-31954248D01*
X63996408Y-31954248D02*
X63996408Y-31555468D01*
X63097248Y-31555468D02*
X63996408Y-31555468D01*
X63097248Y-31954248D02*
X63097248Y-31555468D01*
X63097248Y-33252188D02*
X63996408Y-33252188D01*
X63996408Y-33252188D02*
X63996408Y-32853408D01*
X63097248Y-32853408D02*
X63996408Y-32853408D01*
X63097248Y-33252188D02*
X63097248Y-32853408D01*
X63097248Y-32403828D02*
X63247108Y-32403828D01*
X63247108Y-32403828D02*
X63247108Y-32104108D01*
X63097248Y-32104108D02*
X63247108Y-32104108D01*
X63097248Y-32403828D02*
X63097248Y-32104108D01*
X63846548Y-32403828D02*
X63996408Y-32403828D01*
X63996408Y-32403828D02*
X63996408Y-32104108D01*
X63846548Y-32104108D02*
X63996408Y-32104108D01*
X63846548Y-32403828D02*
X63846548Y-32104108D01*
X63396968Y-32403828D02*
X63696688Y-32403828D01*
X63696688Y-32403828D02*
X63696688Y-32104108D01*
X63396968Y-32104108D02*
X63696688Y-32104108D01*
X63396968Y-32403828D02*
X63396968Y-32104108D01*
X63148048Y-31954248D02*
X63148048Y-32853408D01*
X63945608Y-31954248D02*
X63945608Y-32853408D01*
X47987000Y-74873000D02*
X48787000Y-74873000D01*
X47928421Y-75173000D02*
G75*
G03X47928421Y-75173000I-141421J0D01*
G01*
X47937420Y-75623420D02*
X48836580Y-75623420D01*
X48836580Y-75623420D02*
X48836580Y-75224640D01*
X47937420Y-75224640D02*
X48836580Y-75224640D01*
X47937420Y-75623420D02*
X47937420Y-75224640D01*
X47937420Y-76921360D02*
X48836580Y-76921360D01*
X48836580Y-76921360D02*
X48836580Y-76522580D01*
X47937420Y-76522580D02*
X48836580Y-76522580D01*
X47937420Y-76921360D02*
X47937420Y-76522580D01*
X47937420Y-76073000D02*
X48087280Y-76073000D01*
X48087280Y-76073000D02*
X48087280Y-75773280D01*
X47937420Y-75773280D02*
X48087280Y-75773280D01*
X47937420Y-76073000D02*
X47937420Y-75773280D01*
X48686720Y-76073000D02*
X48836580Y-76073000D01*
X48836580Y-76073000D02*
X48836580Y-75773280D01*
X48686720Y-75773280D02*
X48836580Y-75773280D01*
X48686720Y-76073000D02*
X48686720Y-75773280D01*
X48237140Y-76073000D02*
X48536860Y-76073000D01*
X48536860Y-76073000D02*
X48536860Y-75773280D01*
X48237140Y-75773280D02*
X48536860Y-75773280D01*
X48237140Y-76073000D02*
X48237140Y-75773280D01*
X47988220Y-75623420D02*
X47988220Y-76522580D01*
X48785780Y-75623420D02*
X48785780Y-76522580D01*
D15*
X59596020Y-46720760D02*
X60594240Y-47718980D01*
X60594240Y-47718980D02*
X62595760Y-47718980D01*
X62595760Y-47718980D02*
X63593980Y-46720760D01*
X63593980Y-46720760D02*
X63593980Y-44719240D01*
X63593980Y-44719240D02*
X62595760Y-43721020D01*
X62595760Y-43721020D02*
X60594240Y-43721020D01*
X60594240Y-43721020D02*
X59596020Y-44719240D01*
X59596020Y-44719240D02*
X59596020Y-46720760D01*
X60294520Y-48320960D02*
X62895480Y-48320960D01*
X58994040Y-44419520D02*
X58994040Y-47020480D01*
X62895480Y-48320960D02*
X64195960Y-47020480D01*
X64195960Y-47020480D02*
X64195960Y-44419520D01*
X64195960Y-44419520D02*
X62895480Y-43119040D01*
X62895480Y-43119040D02*
X60294520Y-43119040D01*
X58994040Y-47020480D02*
X60294520Y-48320960D01*
X60294520Y-43119040D02*
X58994040Y-44419520D01*
X62595760Y-45720000D02*
G75*
G03X62595760Y-45720000I-1000760J0D01*
G01*
X48674020Y-46720760D02*
X49672240Y-47718980D01*
X49672240Y-47718980D02*
X51673760Y-47718980D01*
X51673760Y-47718980D02*
X52671980Y-46720760D01*
X52671980Y-46720760D02*
X52671980Y-44719240D01*
X52671980Y-44719240D02*
X51673760Y-43721020D01*
X51673760Y-43721020D02*
X49672240Y-43721020D01*
X49672240Y-43721020D02*
X48674020Y-44719240D01*
X48674020Y-44719240D02*
X48674020Y-46720760D01*
X49372520Y-48320960D02*
X51973480Y-48320960D01*
X48072040Y-44419520D02*
X48072040Y-47020480D01*
X51973480Y-48320960D02*
X53273960Y-47020480D01*
X53273960Y-47020480D02*
X53273960Y-44419520D01*
X53273960Y-44419520D02*
X51973480Y-43119040D01*
X51973480Y-43119040D02*
X49372520Y-43119040D01*
X48072040Y-47020480D02*
X49372520Y-48320960D01*
X49372520Y-43119040D02*
X48072040Y-44419520D01*
X51673760Y-45720000D02*
G75*
G03X51673760Y-45720000I-1000760J0D01*
G01*
D16*
G36*
X60492640Y-39814500D02*
X60485020Y-40142160D01*
X60469780Y-40375840D01*
X60434220Y-40556180D01*
X60378340Y-40721280D01*
X60335160Y-40815260D01*
X60035440Y-41315640D01*
X59951620Y-41404540D01*
X59951620Y-38653720D01*
X59623960Y-38653720D01*
X59430920Y-38656260D01*
X59336940Y-38681660D01*
X59301380Y-38747700D01*
X59296300Y-38836600D01*
X59314080Y-38999160D01*
X59382660Y-39077900D01*
X59532520Y-39095680D01*
X59649360Y-39090600D01*
X59817000Y-39070280D01*
X59898280Y-39016940D01*
X59926220Y-38900100D01*
X59931300Y-38862000D01*
X59951620Y-38653720D01*
X59951620Y-41404540D01*
X59944000Y-41414700D01*
X59944000Y-40845740D01*
X59944000Y-40622220D01*
X59944000Y-40396160D01*
X59944000Y-40266620D01*
X59944000Y-40040560D01*
X59944000Y-39814500D01*
X59944000Y-39684960D01*
X59944000Y-39461440D01*
X59944000Y-39235380D01*
X59621420Y-39235380D01*
X59296300Y-39235380D01*
X59296300Y-39461440D01*
X59296300Y-39684960D01*
X59621420Y-39684960D01*
X59944000Y-39684960D01*
X59944000Y-39814500D01*
X59621420Y-39814500D01*
X59296300Y-39814500D01*
X59296300Y-40040560D01*
X59296300Y-40266620D01*
X59621420Y-40266620D01*
X59944000Y-40266620D01*
X59944000Y-40396160D01*
X59621420Y-40396160D01*
X59296300Y-40396160D01*
X59296300Y-40622220D01*
X59296300Y-40845740D01*
X59621420Y-40845740D01*
X59944000Y-40845740D01*
X59944000Y-41414700D01*
X59662060Y-41714420D01*
X59232800Y-42001440D01*
X59232800Y-41203880D01*
X59232800Y-38590220D01*
X59232800Y-38262560D01*
X59232800Y-37934900D01*
X59024520Y-37955220D01*
X58897520Y-37975540D01*
X58831480Y-38031420D01*
X58803540Y-38155880D01*
X58793380Y-38282880D01*
X58775600Y-38590220D01*
X59004200Y-38590220D01*
X59232800Y-38590220D01*
X59232800Y-41203880D01*
X59227720Y-41023540D01*
X59194700Y-40939720D01*
X59108340Y-40911780D01*
X59006740Y-40911780D01*
X58867040Y-40916860D01*
X58803540Y-40957500D01*
X58783220Y-41071800D01*
X58783220Y-41203880D01*
X58785760Y-41381680D01*
X58818780Y-41462960D01*
X58905140Y-41490900D01*
X59006740Y-41493440D01*
X59146440Y-41485820D01*
X59212480Y-41445180D01*
X59230260Y-41330880D01*
X59232800Y-41203880D01*
X59232800Y-42001440D01*
X59202320Y-42024300D01*
X58801000Y-42202100D01*
X58653680Y-42245280D01*
X58653680Y-41203880D01*
X58653680Y-38590220D01*
X58653680Y-38267640D01*
X58653680Y-37942520D01*
X58427620Y-37942520D01*
X58201560Y-37942520D01*
X58201560Y-38267640D01*
X58201560Y-38590220D01*
X58427620Y-38590220D01*
X58653680Y-38590220D01*
X58653680Y-41203880D01*
X58646060Y-41023540D01*
X58613040Y-40939720D01*
X58526680Y-40911780D01*
X58427620Y-40911780D01*
X58287920Y-40916860D01*
X58221880Y-40957500D01*
X58201560Y-41071800D01*
X58201560Y-41203880D01*
X58206640Y-41381680D01*
X58239660Y-41462960D01*
X58326020Y-41490900D01*
X58427620Y-41493440D01*
X58564780Y-41485820D01*
X58630820Y-41445180D01*
X58651140Y-41330880D01*
X58653680Y-41203880D01*
X58653680Y-42245280D01*
X58564780Y-42275760D01*
X58353960Y-42316400D01*
X58107580Y-42326560D01*
X58056780Y-42324020D01*
X58056780Y-41203880D01*
X58051700Y-41023540D01*
X58039000Y-40982900D01*
X58039000Y-38376860D01*
X58039000Y-38267640D01*
X58033920Y-38087300D01*
X57998360Y-37998400D01*
X57909460Y-37965380D01*
X57830720Y-37955220D01*
X57622440Y-37934900D01*
X57622440Y-38267640D01*
X57622440Y-38597840D01*
X57830720Y-38574980D01*
X57960260Y-38557200D01*
X58018680Y-38503860D01*
X58039000Y-38376860D01*
X58039000Y-40982900D01*
X58023760Y-40939720D01*
X57937400Y-40911780D01*
X57840880Y-40911780D01*
X57703720Y-40916860D01*
X57640220Y-40960040D01*
X57622440Y-41074340D01*
X57622440Y-41203880D01*
X57624980Y-41381680D01*
X57658000Y-41462960D01*
X57744360Y-41490900D01*
X57835800Y-41493440D01*
X57967880Y-41485820D01*
X58031380Y-41440100D01*
X58051700Y-41325800D01*
X58056780Y-41203880D01*
X58056780Y-42324020D01*
X57825640Y-42318940D01*
X57505600Y-42296080D01*
X57444640Y-42283380D01*
X57444640Y-41333420D01*
X57442100Y-41300400D01*
X57442100Y-38023800D01*
X57398920Y-37985700D01*
X57269380Y-37957760D01*
X57254140Y-37957760D01*
X57045860Y-37934900D01*
X57028080Y-38308280D01*
X57007760Y-38681660D01*
X56974740Y-38679120D01*
X56974740Y-38364160D01*
X56974740Y-38105080D01*
X56944260Y-38072060D01*
X56911240Y-38105080D01*
X56944260Y-38135560D01*
X56974740Y-38105080D01*
X56974740Y-38364160D01*
X56944260Y-38331140D01*
X56911240Y-38364160D01*
X56944260Y-38397180D01*
X56974740Y-38364160D01*
X56974740Y-38679120D01*
X56669940Y-38661340D01*
X56471820Y-38653720D01*
X56370220Y-38671500D01*
X56334660Y-38729920D01*
X56329580Y-38836600D01*
X56339740Y-38961060D01*
X56395620Y-39022020D01*
X56532780Y-39047420D01*
X56603900Y-39052500D01*
X56814720Y-39062660D01*
X56926480Y-39047420D01*
X56969660Y-38994080D01*
X56974740Y-38940740D01*
X57002680Y-38859460D01*
X57023000Y-38854380D01*
X57172860Y-38849300D01*
X57223660Y-38768020D01*
X57213500Y-38717220D01*
X57216040Y-38615620D01*
X57304940Y-38590220D01*
X57386220Y-38564820D01*
X57419240Y-38470840D01*
X57426860Y-38331140D01*
X57429400Y-38153340D01*
X57439560Y-38039040D01*
X57442100Y-38023800D01*
X57442100Y-41300400D01*
X57437020Y-41203880D01*
X57416700Y-41023540D01*
X57373520Y-40937180D01*
X57287160Y-40911780D01*
X57226200Y-40911780D01*
X57111900Y-40919400D01*
X57058560Y-40970200D01*
X57040780Y-41097200D01*
X57040780Y-41203880D01*
X57043320Y-41381680D01*
X57076340Y-41462960D01*
X57162700Y-41490900D01*
X57249060Y-41493440D01*
X57376060Y-41485820D01*
X57434480Y-41445180D01*
X57444640Y-41333420D01*
X57444640Y-42283380D01*
X57264300Y-42255440D01*
X57043320Y-42184320D01*
X56982360Y-42153840D01*
X56982360Y-39235380D01*
X56657240Y-39235380D01*
X56464200Y-39237920D01*
X56367680Y-39263320D01*
X56334660Y-39329360D01*
X56329580Y-39420800D01*
X56347360Y-39552880D01*
X56421020Y-39621460D01*
X56573420Y-39649400D01*
X56743600Y-39646860D01*
X56885840Y-39624000D01*
X56946800Y-39545260D01*
X56962040Y-39438580D01*
X56982360Y-39235380D01*
X56982360Y-42153840D01*
X56944260Y-42138600D01*
X56944260Y-40622220D01*
X56944260Y-40040560D01*
X56934100Y-39923720D01*
X56885840Y-39862760D01*
X56761380Y-39837360D01*
X56636920Y-39827200D01*
X56329580Y-39806880D01*
X56329580Y-40040560D01*
X56329580Y-40274240D01*
X56636920Y-40253920D01*
X56822340Y-40236140D01*
X56911240Y-40200580D01*
X56939180Y-40121840D01*
X56944260Y-40040560D01*
X56944260Y-40622220D01*
X56934100Y-40502840D01*
X56885840Y-40444420D01*
X56761380Y-40416480D01*
X56636920Y-40406320D01*
X56329580Y-40388540D01*
X56329580Y-40622220D01*
X56329580Y-40853360D01*
X56636920Y-40835580D01*
X56822340Y-40817800D01*
X56911240Y-40779700D01*
X56939180Y-40700960D01*
X56944260Y-40622220D01*
X56944260Y-42138600D01*
X56832500Y-42087800D01*
X56606440Y-41965880D01*
X56418480Y-41846500D01*
X56304180Y-41755060D01*
X56233060Y-41689020D01*
X56167020Y-41673780D01*
X56073040Y-41714420D01*
X56073040Y-39022020D01*
X56029860Y-38671500D01*
X55885080Y-38338760D01*
X55638700Y-38046660D01*
X55501540Y-37937440D01*
X55351680Y-37851080D01*
X55189120Y-37802820D01*
X54968140Y-37785040D01*
X54808120Y-37782500D01*
X54554120Y-37787580D01*
X54381400Y-37810440D01*
X54246780Y-37868860D01*
X54107080Y-37970460D01*
X54094380Y-37980620D01*
X53875940Y-38201600D01*
X53698140Y-38475920D01*
X53583840Y-38755320D01*
X53555900Y-38940740D01*
X53583840Y-39202360D01*
X53652420Y-39461440D01*
X53751480Y-39664640D01*
X53797200Y-39723060D01*
X53863240Y-39804340D01*
X53837840Y-39870380D01*
X53743860Y-39944040D01*
X53642260Y-40035480D01*
X53474620Y-40200580D01*
X53266340Y-40413940D01*
X53037740Y-40657780D01*
X53009800Y-40688260D01*
X52433220Y-41315640D01*
X52588160Y-41440100D01*
X52743100Y-41567100D01*
X53167280Y-41127680D01*
X53393340Y-40886380D01*
X53621940Y-40642540D01*
X53812440Y-40429180D01*
X53855620Y-40378380D01*
X54119780Y-40071040D01*
X54350920Y-40170100D01*
X54726840Y-40259000D01*
X55110380Y-40223440D01*
X55283100Y-40167560D01*
X55620920Y-39964360D01*
X55864760Y-39690040D01*
X56017160Y-39370000D01*
X56073040Y-39022020D01*
X56073040Y-41714420D01*
X56070500Y-41716960D01*
X55905400Y-41828720D01*
X55890160Y-41843960D01*
X55417720Y-42105580D01*
X54894480Y-42270680D01*
X54350920Y-42336720D01*
X53820060Y-42298620D01*
X53426360Y-42189400D01*
X52913280Y-41930320D01*
X52481480Y-41582340D01*
X52146200Y-41158160D01*
X51909980Y-40673020D01*
X51780440Y-40144700D01*
X51767740Y-39580820D01*
X51810920Y-39286180D01*
X51922680Y-38867080D01*
X52095400Y-38508940D01*
X52349400Y-38168580D01*
X52466240Y-38039040D01*
X52872640Y-37696140D01*
X53342540Y-37444680D01*
X53850540Y-37297360D01*
X54376320Y-37246560D01*
X54897020Y-37299900D01*
X55394860Y-37454840D01*
X55844440Y-37713920D01*
X55946040Y-37795200D01*
X56134000Y-37952680D01*
X56344820Y-37795200D01*
X56809640Y-37510720D01*
X57327800Y-37330380D01*
X57548780Y-37287200D01*
X58110120Y-37251640D01*
X58651140Y-37340540D01*
X59156600Y-37536120D01*
X59608720Y-37835840D01*
X59992260Y-38234620D01*
X60289440Y-38714680D01*
X60291980Y-38717220D01*
X60383420Y-38920420D01*
X60441840Y-39090600D01*
X60474860Y-39270940D01*
X60487560Y-39497000D01*
X60492640Y-39814500D01*
X60492640Y-39814500D01*
X60492640Y-39814500D01*
G37*
X60492640Y-39814500D02*
X60485020Y-40142160D01*
X60469780Y-40375840D01*
X60434220Y-40556180D01*
X60378340Y-40721280D01*
X60335160Y-40815260D01*
X60035440Y-41315640D01*
X59951620Y-41404540D01*
X59951620Y-38653720D01*
X59623960Y-38653720D01*
X59430920Y-38656260D01*
X59336940Y-38681660D01*
X59301380Y-38747700D01*
X59296300Y-38836600D01*
X59314080Y-38999160D01*
X59382660Y-39077900D01*
X59532520Y-39095680D01*
X59649360Y-39090600D01*
X59817000Y-39070280D01*
X59898280Y-39016940D01*
X59926220Y-38900100D01*
X59931300Y-38862000D01*
X59951620Y-38653720D01*
X59951620Y-41404540D01*
X59944000Y-41414700D01*
X59944000Y-40845740D01*
X59944000Y-40622220D01*
X59944000Y-40396160D01*
X59944000Y-40266620D01*
X59944000Y-40040560D01*
X59944000Y-39814500D01*
X59944000Y-39684960D01*
X59944000Y-39461440D01*
X59944000Y-39235380D01*
X59621420Y-39235380D01*
X59296300Y-39235380D01*
X59296300Y-39461440D01*
X59296300Y-39684960D01*
X59621420Y-39684960D01*
X59944000Y-39684960D01*
X59944000Y-39814500D01*
X59621420Y-39814500D01*
X59296300Y-39814500D01*
X59296300Y-40040560D01*
X59296300Y-40266620D01*
X59621420Y-40266620D01*
X59944000Y-40266620D01*
X59944000Y-40396160D01*
X59621420Y-40396160D01*
X59296300Y-40396160D01*
X59296300Y-40622220D01*
X59296300Y-40845740D01*
X59621420Y-40845740D01*
X59944000Y-40845740D01*
X59944000Y-41414700D01*
X59662060Y-41714420D01*
X59232800Y-42001440D01*
X59232800Y-41203880D01*
X59232800Y-38590220D01*
X59232800Y-38262560D01*
X59232800Y-37934900D01*
X59024520Y-37955220D01*
X58897520Y-37975540D01*
X58831480Y-38031420D01*
X58803540Y-38155880D01*
X58793380Y-38282880D01*
X58775600Y-38590220D01*
X59004200Y-38590220D01*
X59232800Y-38590220D01*
X59232800Y-41203880D01*
X59227720Y-41023540D01*
X59194700Y-40939720D01*
X59108340Y-40911780D01*
X59006740Y-40911780D01*
X58867040Y-40916860D01*
X58803540Y-40957500D01*
X58783220Y-41071800D01*
X58783220Y-41203880D01*
X58785760Y-41381680D01*
X58818780Y-41462960D01*
X58905140Y-41490900D01*
X59006740Y-41493440D01*
X59146440Y-41485820D01*
X59212480Y-41445180D01*
X59230260Y-41330880D01*
X59232800Y-41203880D01*
X59232800Y-42001440D01*
X59202320Y-42024300D01*
X58801000Y-42202100D01*
X58653680Y-42245280D01*
X58653680Y-41203880D01*
X58653680Y-38590220D01*
X58653680Y-38267640D01*
X58653680Y-37942520D01*
X58427620Y-37942520D01*
X58201560Y-37942520D01*
X58201560Y-38267640D01*
X58201560Y-38590220D01*
X58427620Y-38590220D01*
X58653680Y-38590220D01*
X58653680Y-41203880D01*
X58646060Y-41023540D01*
X58613040Y-40939720D01*
X58526680Y-40911780D01*
X58427620Y-40911780D01*
X58287920Y-40916860D01*
X58221880Y-40957500D01*
X58201560Y-41071800D01*
X58201560Y-41203880D01*
X58206640Y-41381680D01*
X58239660Y-41462960D01*
X58326020Y-41490900D01*
X58427620Y-41493440D01*
X58564780Y-41485820D01*
X58630820Y-41445180D01*
X58651140Y-41330880D01*
X58653680Y-41203880D01*
X58653680Y-42245280D01*
X58564780Y-42275760D01*
X58353960Y-42316400D01*
X58107580Y-42326560D01*
X58056780Y-42324020D01*
X58056780Y-41203880D01*
X58051700Y-41023540D01*
X58039000Y-40982900D01*
X58039000Y-38376860D01*
X58039000Y-38267640D01*
X58033920Y-38087300D01*
X57998360Y-37998400D01*
X57909460Y-37965380D01*
X57830720Y-37955220D01*
X57622440Y-37934900D01*
X57622440Y-38267640D01*
X57622440Y-38597840D01*
X57830720Y-38574980D01*
X57960260Y-38557200D01*
X58018680Y-38503860D01*
X58039000Y-38376860D01*
X58039000Y-40982900D01*
X58023760Y-40939720D01*
X57937400Y-40911780D01*
X57840880Y-40911780D01*
X57703720Y-40916860D01*
X57640220Y-40960040D01*
X57622440Y-41074340D01*
X57622440Y-41203880D01*
X57624980Y-41381680D01*
X57658000Y-41462960D01*
X57744360Y-41490900D01*
X57835800Y-41493440D01*
X57967880Y-41485820D01*
X58031380Y-41440100D01*
X58051700Y-41325800D01*
X58056780Y-41203880D01*
X58056780Y-42324020D01*
X57825640Y-42318940D01*
X57505600Y-42296080D01*
X57444640Y-42283380D01*
X57444640Y-41333420D01*
X57442100Y-41300400D01*
X57442100Y-38023800D01*
X57398920Y-37985700D01*
X57269380Y-37957760D01*
X57254140Y-37957760D01*
X57045860Y-37934900D01*
X57028080Y-38308280D01*
X57007760Y-38681660D01*
X56974740Y-38679120D01*
X56974740Y-38364160D01*
X56974740Y-38105080D01*
X56944260Y-38072060D01*
X56911240Y-38105080D01*
X56944260Y-38135560D01*
X56974740Y-38105080D01*
X56974740Y-38364160D01*
X56944260Y-38331140D01*
X56911240Y-38364160D01*
X56944260Y-38397180D01*
X56974740Y-38364160D01*
X56974740Y-38679120D01*
X56669940Y-38661340D01*
X56471820Y-38653720D01*
X56370220Y-38671500D01*
X56334660Y-38729920D01*
X56329580Y-38836600D01*
X56339740Y-38961060D01*
X56395620Y-39022020D01*
X56532780Y-39047420D01*
X56603900Y-39052500D01*
X56814720Y-39062660D01*
X56926480Y-39047420D01*
X56969660Y-38994080D01*
X56974740Y-38940740D01*
X57002680Y-38859460D01*
X57023000Y-38854380D01*
X57172860Y-38849300D01*
X57223660Y-38768020D01*
X57213500Y-38717220D01*
X57216040Y-38615620D01*
X57304940Y-38590220D01*
X57386220Y-38564820D01*
X57419240Y-38470840D01*
X57426860Y-38331140D01*
X57429400Y-38153340D01*
X57439560Y-38039040D01*
X57442100Y-38023800D01*
X57442100Y-41300400D01*
X57437020Y-41203880D01*
X57416700Y-41023540D01*
X57373520Y-40937180D01*
X57287160Y-40911780D01*
X57226200Y-40911780D01*
X57111900Y-40919400D01*
X57058560Y-40970200D01*
X57040780Y-41097200D01*
X57040780Y-41203880D01*
X57043320Y-41381680D01*
X57076340Y-41462960D01*
X57162700Y-41490900D01*
X57249060Y-41493440D01*
X57376060Y-41485820D01*
X57434480Y-41445180D01*
X57444640Y-41333420D01*
X57444640Y-42283380D01*
X57264300Y-42255440D01*
X57043320Y-42184320D01*
X56982360Y-42153840D01*
X56982360Y-39235380D01*
X56657240Y-39235380D01*
X56464200Y-39237920D01*
X56367680Y-39263320D01*
X56334660Y-39329360D01*
X56329580Y-39420800D01*
X56347360Y-39552880D01*
X56421020Y-39621460D01*
X56573420Y-39649400D01*
X56743600Y-39646860D01*
X56885840Y-39624000D01*
X56946800Y-39545260D01*
X56962040Y-39438580D01*
X56982360Y-39235380D01*
X56982360Y-42153840D01*
X56944260Y-42138600D01*
X56944260Y-40622220D01*
X56944260Y-40040560D01*
X56934100Y-39923720D01*
X56885840Y-39862760D01*
X56761380Y-39837360D01*
X56636920Y-39827200D01*
X56329580Y-39806880D01*
X56329580Y-40040560D01*
X56329580Y-40274240D01*
X56636920Y-40253920D01*
X56822340Y-40236140D01*
X56911240Y-40200580D01*
X56939180Y-40121840D01*
X56944260Y-40040560D01*
X56944260Y-40622220D01*
X56934100Y-40502840D01*
X56885840Y-40444420D01*
X56761380Y-40416480D01*
X56636920Y-40406320D01*
X56329580Y-40388540D01*
X56329580Y-40622220D01*
X56329580Y-40853360D01*
X56636920Y-40835580D01*
X56822340Y-40817800D01*
X56911240Y-40779700D01*
X56939180Y-40700960D01*
X56944260Y-40622220D01*
X56944260Y-42138600D01*
X56832500Y-42087800D01*
X56606440Y-41965880D01*
X56418480Y-41846500D01*
X56304180Y-41755060D01*
X56233060Y-41689020D01*
X56167020Y-41673780D01*
X56073040Y-41714420D01*
X56073040Y-39022020D01*
X56029860Y-38671500D01*
X55885080Y-38338760D01*
X55638700Y-38046660D01*
X55501540Y-37937440D01*
X55351680Y-37851080D01*
X55189120Y-37802820D01*
X54968140Y-37785040D01*
X54808120Y-37782500D01*
X54554120Y-37787580D01*
X54381400Y-37810440D01*
X54246780Y-37868860D01*
X54107080Y-37970460D01*
X54094380Y-37980620D01*
X53875940Y-38201600D01*
X53698140Y-38475920D01*
X53583840Y-38755320D01*
X53555900Y-38940740D01*
X53583840Y-39202360D01*
X53652420Y-39461440D01*
X53751480Y-39664640D01*
X53797200Y-39723060D01*
X53863240Y-39804340D01*
X53837840Y-39870380D01*
X53743860Y-39944040D01*
X53642260Y-40035480D01*
X53474620Y-40200580D01*
X53266340Y-40413940D01*
X53037740Y-40657780D01*
X53009800Y-40688260D01*
X52433220Y-41315640D01*
X52588160Y-41440100D01*
X52743100Y-41567100D01*
X53167280Y-41127680D01*
X53393340Y-40886380D01*
X53621940Y-40642540D01*
X53812440Y-40429180D01*
X53855620Y-40378380D01*
X54119780Y-40071040D01*
X54350920Y-40170100D01*
X54726840Y-40259000D01*
X55110380Y-40223440D01*
X55283100Y-40167560D01*
X55620920Y-39964360D01*
X55864760Y-39690040D01*
X56017160Y-39370000D01*
X56073040Y-39022020D01*
X56073040Y-41714420D01*
X56070500Y-41716960D01*
X55905400Y-41828720D01*
X55890160Y-41843960D01*
X55417720Y-42105580D01*
X54894480Y-42270680D01*
X54350920Y-42336720D01*
X53820060Y-42298620D01*
X53426360Y-42189400D01*
X52913280Y-41930320D01*
X52481480Y-41582340D01*
X52146200Y-41158160D01*
X51909980Y-40673020D01*
X51780440Y-40144700D01*
X51767740Y-39580820D01*
X51810920Y-39286180D01*
X51922680Y-38867080D01*
X52095400Y-38508940D01*
X52349400Y-38168580D01*
X52466240Y-38039040D01*
X52872640Y-37696140D01*
X53342540Y-37444680D01*
X53850540Y-37297360D01*
X54376320Y-37246560D01*
X54897020Y-37299900D01*
X55394860Y-37454840D01*
X55844440Y-37713920D01*
X55946040Y-37795200D01*
X56134000Y-37952680D01*
X56344820Y-37795200D01*
X56809640Y-37510720D01*
X57327800Y-37330380D01*
X57548780Y-37287200D01*
X58110120Y-37251640D01*
X58651140Y-37340540D01*
X59156600Y-37536120D01*
X59608720Y-37835840D01*
X59992260Y-38234620D01*
X60289440Y-38714680D01*
X60291980Y-38717220D01*
X60383420Y-38920420D01*
X60441840Y-39090600D01*
X60474860Y-39270940D01*
X60487560Y-39497000D01*
X60492640Y-39814500D01*
X60492640Y-39814500D01*
G36*
X55671720Y-38874700D02*
X55653940Y-39169340D01*
X55547260Y-39446200D01*
X55364380Y-39674800D01*
X55120540Y-39827200D01*
X54846220Y-39878000D01*
X54678580Y-39850060D01*
X54485540Y-39778940D01*
X54465220Y-39766240D01*
X54201060Y-39568120D01*
X54035960Y-39316660D01*
X53969920Y-39032180D01*
X54002940Y-38742620D01*
X54140100Y-38475920D01*
X54376320Y-38257480D01*
X54404260Y-38239700D01*
X54678580Y-38145720D01*
X54973220Y-38155880D01*
X55255160Y-38257480D01*
X55486300Y-38440360D01*
X55585360Y-38582600D01*
X55671720Y-38874700D01*
X55671720Y-38874700D01*
X55671720Y-38874700D01*
G37*
X55671720Y-38874700D02*
X55653940Y-39169340D01*
X55547260Y-39446200D01*
X55364380Y-39674800D01*
X55120540Y-39827200D01*
X54846220Y-39878000D01*
X54678580Y-39850060D01*
X54485540Y-39778940D01*
X54465220Y-39766240D01*
X54201060Y-39568120D01*
X54035960Y-39316660D01*
X53969920Y-39032180D01*
X54002940Y-38742620D01*
X54140100Y-38475920D01*
X54376320Y-38257480D01*
X54404260Y-38239700D01*
X54678580Y-38145720D01*
X54973220Y-38155880D01*
X55255160Y-38257480D01*
X55486300Y-38440360D01*
X55585360Y-38582600D01*
X55671720Y-38874700D01*
X55671720Y-38874700D01*
D11*
X65700000Y-72300000D02*
G75*
G03X65954000Y-72300000I127000J127000D01*
G01*
X65700000Y-72300000D02*
G75*
G03X65446000Y-72300000I-127000J-127000D01*
G01*
X65700000Y-77400000D02*
G75*
G03X65954000Y-77400000I127000J127000D01*
G01*
X65700000Y-77400000D02*
G75*
G03X65446000Y-77400000I-127000J-127000D01*
G01*
X65800000Y-69800000D02*
G75*
G03X66054000Y-69800000I127000J127000D01*
G01*
X65800000Y-69800000D02*
G75*
G03X65546000Y-69800000I-127000J-127000D01*
G01*
X65800000Y-74800000D02*
G75*
G03X66054000Y-74800000I127000J127000D01*
G01*
X65800000Y-74800000D02*
G75*
G03X65546000Y-74800000I-127000J-127000D01*
G01*
X65700000Y-67200000D02*
G75*
G03X65954000Y-67200000I127000J127000D01*
G01*
X65700000Y-67200000D02*
G75*
G03X65446000Y-67200000I-127000J-127000D01*
G01*
X65700000Y-80000000D02*
G75*
G03X65954000Y-80000000I127000J127000D01*
G01*
X65700000Y-80000000D02*
G75*
G03X65446000Y-80000000I-127000J-127000D01*
G01*
M02*
