M48
;DRILL file {KiCad 4.0.1-stable} date 10-Oct-16 12:47:26 PM
;FORMAT={-:-/ absolute / metric / decimal}
FMAT,2
METRIC,TZ
T1C0.300
T2C0.900
T3C1.016
T4C2.000
%
G90
G05
M71
T1
X47.041Y-57.252
X47.1Y-74.758
X47.862Y-72.091
X48.26Y-41.148
X48.387Y-45.085
X48.387Y-54.788
X48.514Y-40.005
X48.751Y-69.742
X49.327Y-47.6
X49.403Y-50.292
X49.886Y-75.794
X49.91Y-66.356
X49.945Y-65.233
X49.958Y-57.359
X50.495Y-46.076
X50.565Y-68.012
X50.565Y-68.911
X50.656Y-52.66
X50.673Y-39.624
X50.673Y-74.486
X50.844Y-61.139
X50.847Y-57.359
X50.86Y-58.639
X50.86Y-65.442
X51.322Y-62.221
X51.371Y-82.296
X51.498Y-74.676
X52.324Y-47.816
X52.394Y-67.662
X52.409Y-63.506
X52.578Y-40.132
X52.73Y-53.188
X53.019Y-62.897
X53.054Y-67.021
X53.238Y-45.974
X53.543Y-56.794
X54.085Y-66.249
X54.102Y-53.238
X54.276Y-68.218
X54.407Y-46.736
X54.407Y-56.54
X54.483Y-74.739
X54.644Y-65.589
X54.813Y-43.18
X54.864Y-45.466
X55.118Y-47.447
X55.254Y-64.979
X55.345Y-56.491
X55.797Y-74.052
X55.813Y-64.319
X56.07Y-72.39
X56.214Y-58.294
X56.236Y-60.655
X56.27Y-52.978
X56.388Y-38.354
X56.744Y-45.06
X57.213Y-74.549
X57.281Y-56.668
X57.331Y-58.695
X57.489Y-65.64
X57.785Y-38.227
X57.855Y-66.767
X58.166Y-42.608
X58.281Y-64.847
X58.358Y-82.394
X58.42Y-48.819
X58.469Y-67.362
X58.789Y-66.458
X59.013Y-64.197
X59.165Y-65.726
X59.182Y-45.212
X59.284Y-41.758
X59.333Y-67.174
X59.436Y-49.53
X59.516Y-61.327
X59.563Y-38.227
X59.577Y-81.82
X59.627Y-51.752
X59.643Y-57.684
X59.988Y-64.141
X60.008Y-50.546
X60.3Y-60.96
X60.334Y-69.328
X60.613Y-65.741
X60.858Y-41.808
X60.867Y-59.193
X61.223Y-72.996
X61.599Y-65.858
X61.619Y-69.368
X61.66Y-58.985
X61.863Y-58.187
X62.23Y-41.91
X62.281Y-61.874
X62.357Y-52.197
X62.366Y-59.595
X62.391Y-57.532
X62.433Y-51.105
X62.442Y-63.557
X62.823Y-64.309
X62.992Y-50.038
X63.5Y-48.768
X64.008Y-51.664
X64.093Y-75.825
X64.22Y-79.102
X64.262Y-40.742
X64.414Y-49.479
X64.516Y-31.623
X64.567Y-48.565
X64.618Y-42.672
X64.872Y-36.373
X64.973Y-53.289
X65.532Y-49.53
X65.659Y-48.704
X65.684Y-62.84
X65.722Y-45.847
X65.769Y-57.867
X65.769Y-60.839
X65.786Y-59.995
X66.192Y-39.37
X66.328Y-51.289
X66.455Y-66.808
T3
X44.9Y-32.4
X44.9Y-34.94
X44.9Y-37.48
X44.9Y-40.02
X44.9Y-42.56
X44.9Y-45.1
X44.9Y-47.64
X44.9Y-50.18
X44.9Y-52.72
X44.9Y-55.26
X44.9Y-57.8
X44.9Y-60.34
X44.9Y-62.88
X44.9Y-65.42
X44.9Y-67.96
X44.9Y-70.5
X44.9Y-73.04
X44.9Y-75.58
X44.9Y-78.12
X44.9Y-80.66
X47.481Y-84.029
X50.021Y-84.029
X51.308Y-77.343
X51.308Y-79.883
X52.561Y-84.029
X53.848Y-77.343
X53.848Y-79.883
X55.101Y-84.029
X56.388Y-77.343
X56.388Y-79.883
X57.641Y-84.029
X58.928Y-77.343
X58.928Y-79.883
X60.181Y-84.029
X61.468Y-77.343
X61.468Y-79.883
X62.721Y-84.029
X65.261Y-84.029
X67.8Y-32.5
X67.8Y-35.04
X67.8Y-37.58
X67.8Y-40.12
X67.8Y-42.66
X67.8Y-45.2
X67.8Y-47.74
X67.8Y-50.28
X67.8Y-52.82
X67.8Y-55.36
X67.8Y-57.9
X67.8Y-60.44
X67.8Y-62.98
X67.8Y-65.52
X67.8Y-68.06
X67.8Y-70.6
X67.8Y-73.14
X67.8Y-75.68
X67.8Y-78.22
X67.8Y-80.76
T4
X45.8Y-29.6
X45.8Y-86.6
X67.Y-29.5
X67.Y-86.6
T2
X51.475Y-29.95G85X51.475Y-30.85
G05
X51.475Y-33.25G85X51.475Y-34.15
G05
X61.125Y-29.95G85X61.125Y-30.85
G05
X61.125Y-33.25G85X61.125Y-34.15
G05
T0
M30
