G04 #@! TF.FileFunction,Soldermask,Top*
%FSLAX46Y46*%
G04 Gerber Fmt 4.6, Leading zero omitted, Abs format (unit mm)*
G04 Created by KiCad (PCBNEW 4.0.1-stable) date 10-Oct-16 12:47:22 PM*
%MOMM*%
G01*
G04 APERTURE LIST*
%ADD10C,0.100000*%
%ADD11C,0.150000*%
%ADD12C,3.400000*%
%ADD13O,2.127200X2.432000*%
%ADD14O,2.432000X2.127200*%
%ADD15R,2.127200X2.127200*%
%ADD16O,2.127200X2.127200*%
%ADD17R,0.800000X1.900000*%
%ADD18R,2.600000X2.900000*%
%ADD19R,1.197560X1.197560*%
%ADD20R,0.680000X1.900000*%
%ADD21R,1.900000X0.680000*%
%ADD22R,1.600000X1.500000*%
%ADD23R,1.400000X1.200000*%
G04 APERTURE END LIST*
D10*
D11*
X52800000Y-28900000D02*
X52800000Y-33400000D01*
X50300000Y-28900000D02*
X52800000Y-28900000D01*
X50200000Y-28800000D02*
X50300000Y-28900000D01*
X59800000Y-28900000D02*
X62400000Y-28900000D01*
X59800000Y-33400000D02*
X59800000Y-28900000D01*
X52800000Y-33400000D02*
X59800000Y-33400000D01*
X47800000Y-88700000D02*
X48800000Y-89700000D01*
X65100000Y-88700000D02*
X64100000Y-89700000D01*
X48800000Y-89700000D02*
X64100000Y-89700000D01*
X43600000Y-27600000D02*
X43600000Y-86700000D01*
X69100000Y-86700000D02*
X69100000Y-27600000D01*
X63700000Y-27600000D02*
X69100000Y-27600000D01*
X50200000Y-28800000D02*
X49000000Y-27600000D01*
X49000000Y-27600000D02*
X43600000Y-27600000D01*
X45800000Y-88700000D02*
X47800000Y-88700000D01*
X67100000Y-88700000D02*
X65100000Y-88700000D01*
X62400000Y-28900000D02*
X63700000Y-27600000D01*
X67100000Y-88700000D02*
G75*
G03X69100000Y-86700000I0J2000000D01*
G01*
X43600000Y-86700000D02*
G75*
G03X45800000Y-88700000I2100000J100000D01*
G01*
D12*
X67000000Y-86600000D03*
X67000000Y-29500000D03*
X45800000Y-29600000D03*
X45800000Y-86600000D03*
D13*
X65261328Y-84029329D03*
X62721328Y-84029329D03*
X60181328Y-84029329D03*
X57641328Y-84029329D03*
X55101328Y-84029329D03*
X52561328Y-84029329D03*
X50021328Y-84029329D03*
X47481328Y-84029329D03*
D14*
X67800000Y-32500000D03*
X67800000Y-35040000D03*
X67800000Y-37580000D03*
X67800000Y-40120000D03*
X67800000Y-42660000D03*
X67800000Y-45200000D03*
X67800000Y-47740000D03*
X67800000Y-50280000D03*
X67800000Y-52820000D03*
X67800000Y-55360000D03*
X67800000Y-57900000D03*
X67800000Y-60440000D03*
X67800000Y-62980000D03*
X67800000Y-65520000D03*
X67800000Y-68060000D03*
X67800000Y-70600000D03*
X67800000Y-73140000D03*
X67800000Y-75680000D03*
X67800000Y-78220000D03*
X67800000Y-80760000D03*
X44900000Y-32400000D03*
X44900000Y-34940000D03*
X44900000Y-37480000D03*
X44900000Y-40020000D03*
X44900000Y-42560000D03*
X44900000Y-45100000D03*
X44900000Y-47640000D03*
X44900000Y-50180000D03*
X44900000Y-52720000D03*
X44900000Y-55260000D03*
X44900000Y-57800000D03*
X44900000Y-60340000D03*
X44900000Y-62880000D03*
X44900000Y-65420000D03*
X44900000Y-67960000D03*
X44900000Y-70500000D03*
X44900000Y-73040000D03*
X44900000Y-75580000D03*
X44900000Y-78120000D03*
X44900000Y-80660000D03*
D15*
X51308000Y-79883000D03*
D16*
X51308000Y-77343000D03*
X53848000Y-79883000D03*
X53848000Y-77343000D03*
X56388000Y-79883000D03*
X56388000Y-77343000D03*
X58928000Y-79883000D03*
X58928000Y-77343000D03*
X61468000Y-79883000D03*
X61468000Y-77343000D03*
D17*
X57600000Y-34400000D03*
X56950000Y-34400000D03*
X56300000Y-34400000D03*
X55650000Y-34400000D03*
X55000000Y-34400000D03*
D18*
X61125000Y-33700000D03*
X61125000Y-30400000D03*
X51475000Y-33700000D03*
X51475000Y-30400000D03*
D19*
X61125100Y-40894000D03*
X62623700Y-40894000D03*
D20*
X62371328Y-55047328D03*
X61871328Y-55047328D03*
X61371328Y-55047328D03*
X60871328Y-55047328D03*
X60371328Y-55047328D03*
X59871328Y-55047328D03*
X59371328Y-55047328D03*
X58871328Y-55047328D03*
X58371328Y-55047328D03*
X57871328Y-55047328D03*
X57371328Y-55047328D03*
X56871328Y-55047328D03*
X56371328Y-55047328D03*
X55871328Y-55047328D03*
X55371328Y-55047328D03*
X54871328Y-55047328D03*
X54371328Y-55047328D03*
X53871328Y-55047328D03*
X53371328Y-55047328D03*
X52871328Y-55047328D03*
X52371328Y-55047328D03*
X51871328Y-55047328D03*
X51371328Y-55047328D03*
X50871328Y-55047328D03*
X50371328Y-55047328D03*
D21*
X48471328Y-56947328D03*
X48471328Y-57447328D03*
X48471328Y-57947328D03*
X48471328Y-58447328D03*
X48471328Y-58947328D03*
X48471328Y-59447328D03*
X48471328Y-59947328D03*
X48471328Y-60447328D03*
X48471328Y-60947328D03*
X48471328Y-61447328D03*
X48471328Y-61947328D03*
X48471328Y-62447328D03*
X48471328Y-62947328D03*
X48471328Y-63447328D03*
X48471328Y-63947328D03*
X48471328Y-64447328D03*
X48471328Y-64947328D03*
X48471328Y-65447328D03*
X48471328Y-65947328D03*
X48471328Y-66447328D03*
X48471328Y-66947328D03*
X48471328Y-67447328D03*
X48471328Y-67947328D03*
X48471328Y-68447328D03*
X48471328Y-68947328D03*
D20*
X50371328Y-70847328D03*
X50871328Y-70847328D03*
X51371328Y-70847328D03*
X51871328Y-70847328D03*
X52371328Y-70847328D03*
X52871328Y-70847328D03*
X53371328Y-70847328D03*
X53871328Y-70847328D03*
X54371328Y-70847328D03*
X54871328Y-70847328D03*
X55371328Y-70847328D03*
X55871328Y-70847328D03*
X56371328Y-70847328D03*
X56871328Y-70847328D03*
X57371328Y-70847328D03*
X57871328Y-70847328D03*
X58371328Y-70847328D03*
X58871328Y-70847328D03*
X59371328Y-70847328D03*
X59871328Y-70847328D03*
X60371328Y-70847328D03*
X60871328Y-70847328D03*
X61371328Y-70847328D03*
X61871328Y-70847328D03*
X62371328Y-70847328D03*
D21*
X64271328Y-68947328D03*
X64271328Y-68447328D03*
X64271328Y-67947328D03*
X64271328Y-67447328D03*
X64271328Y-66947328D03*
X64271328Y-66447328D03*
X64271328Y-65947328D03*
X64271328Y-65447328D03*
X64271328Y-64947328D03*
X64271328Y-64447328D03*
X64271328Y-63947328D03*
X64271328Y-63447328D03*
X64271328Y-62947328D03*
X64271328Y-62447328D03*
X64271328Y-61947328D03*
X64271328Y-61447328D03*
X64271328Y-60947328D03*
X64271328Y-60447328D03*
X64271328Y-59947328D03*
X64271328Y-59447328D03*
X64271328Y-58947328D03*
X64271328Y-58447328D03*
X64271328Y-57947328D03*
X64271328Y-57447328D03*
X64271328Y-56947328D03*
D19*
X63546828Y-33153128D03*
X63546828Y-31654528D03*
X48387000Y-76822300D03*
X48387000Y-75323700D03*
D22*
X58595260Y-43870880D03*
X64594740Y-47569120D03*
X58595260Y-47569120D03*
X64594740Y-43870880D03*
X47673260Y-43870880D03*
X53672740Y-47569120D03*
X47673260Y-47569120D03*
X53672740Y-43870880D03*
D23*
X54582400Y-51969700D03*
X57482400Y-51969700D03*
X54582400Y-50544700D03*
X57482400Y-50544700D03*
M02*
